<svg width="290" height="163" viewBox="0 0 290 163" fill="none" xmlns="http://www.w3.org/2000/svg">
<path d="M0 0H290V163H0V0Z" fill="white"/>
<path d="M53.1802 82V69H56.8602L58.8202 74.32C58.9402 74.68 59.0536 75.0533 59.1602 75.44C59.2669 75.8267 59.3802 76.2133 59.5002 76.6H59.5802C59.7002 76.2133 59.8136 75.8267 59.9202 75.44C60.0269 75.0533 60.1402 74.68 60.2602 74.32L62.1402 69H65.8202V82H62.7002V78.16C62.7002 77.72 62.7269 77.1933 62.7802 76.58C62.8336 75.9533 62.8936 75.3333 62.9602 74.72C63.0269 74.0933 63.0869 73.56 63.1402 73.12H63.0602L61.9802 76.64L60.3802 80.94H58.5402L56.9402 76.64L55.9002 73.12H55.8202C55.8736 73.56 55.9336 74.0933 56.0002 74.72C56.0669 75.3333 56.1269 75.9533 56.1802 76.58C56.2336 77.1933 56.2602 77.72 56.2602 78.16V82H53.1802ZM67.0676 82L71.0276 69H75.1876L79.1476 82H75.5076L74.0276 75.68C73.8676 75.0533 73.7076 74.3733 73.5476 73.64C73.3876 72.9067 73.2276 72.2133 73.0676 71.56H72.9876C72.8542 72.2133 72.7076 72.9067 72.5476 73.64C72.3876 74.3733 72.2276 75.0533 72.0676 75.68L70.5876 82H67.0676ZM69.9076 79.24V76.58H76.2676V79.24H69.9076ZM85.912 82.24C84.792 82.24 83.752 82 82.792 81.52C81.8453 81.0267 81.0786 80.2867 80.492 79.3C79.9186 78.3133 79.632 77.08 79.632 75.6C79.632 74.5067 79.7986 73.54 80.132 72.7C80.4786 71.8467 80.9453 71.1267 81.532 70.54C82.132 69.9533 82.8053 69.5133 83.552 69.22C84.312 68.9133 85.0986 68.76 85.912 68.76C86.7786 68.76 87.552 68.9267 88.232 69.26C88.9253 69.5933 89.4986 70 89.952 70.48L88.152 72.56C87.832 72.28 87.4986 72.0733 87.152 71.94C86.8186 71.7933 86.432 71.72 85.992 71.72C85.4986 71.72 85.032 71.8733 84.592 72.18C84.1653 72.4867 83.8186 72.92 83.552 73.48C83.2853 74.04 83.152 74.7067 83.152 75.48C83.152 76.2933 83.2786 76.9867 83.532 77.56C83.7853 78.12 84.1386 78.5467 84.592 78.84C85.0453 79.1333 85.5653 79.28 86.152 79.28C86.6186 79.28 87.0386 79.1867 87.412 79C87.7853 78.8 88.0986 78.5733 88.352 78.32L90.072 80.36C89.4986 81 88.8586 81.4733 88.152 81.78C87.4586 82.0867 86.712 82.24 85.912 82.24ZM94.1759 82V71.88H90.7359V69H101.056V71.88H97.6159V82H94.1759ZM102.985 82V69H111.385V71.88H106.425V73.92H110.665V76.8H106.425V79.12H111.585V82H102.985ZM114.098 82V69H118.858C119.805 69 120.678 69.1333 121.478 69.4C122.278 69.6667 122.918 70.1133 123.398 70.74C123.892 71.3667 124.138 72.2267 124.138 73.32C124.138 74.3733 123.892 75.24 123.398 75.92C122.918 76.5867 122.278 77.08 121.478 77.4C120.692 77.72 119.845 77.88 118.938 77.88H117.538V82H114.098ZM117.538 75.16H118.778C119.458 75.16 119.958 75 120.278 74.68C120.612 74.3467 120.778 73.8933 120.778 73.32C120.778 72.7333 120.598 72.32 120.238 72.08C119.878 71.84 119.365 71.72 118.698 71.72H117.538V75.16ZM130.27 82V69H133.71V73.84H137.59V69H141.03V82H137.59V76.84H133.71V82H130.27ZM149.383 82.24C148.183 82.24 147.13 81.9733 146.223 81.44C145.316 80.8933 144.61 80.1133 144.103 79.1C143.596 78.0867 143.343 76.8667 143.343 75.44C143.343 74.0133 143.596 72.8067 144.103 71.82C144.61 70.82 145.316 70.06 146.223 69.54C147.13 69.02 148.183 68.76 149.383 68.76C150.583 68.76 151.636 69.02 152.543 69.54C153.45 70.06 154.156 70.82 154.663 71.82C155.17 72.8067 155.423 74.0133 155.423 75.44C155.423 76.8667 155.17 78.0867 154.663 79.1C154.156 80.1133 153.45 80.8933 152.543 81.44C151.636 81.9733 150.583 82.24 149.383 82.24ZM149.383 79.28C149.903 79.28 150.35 79.1267 150.723 78.82C151.11 78.5 151.403 78.0533 151.603 77.48C151.803 76.9067 151.903 76.2267 151.903 75.44C151.903 74.6533 151.803 73.9867 151.603 73.44C151.403 72.88 151.11 72.4533 150.723 72.16C150.35 71.8667 149.903 71.72 149.383 71.72C148.863 71.72 148.41 71.8667 148.023 72.16C147.65 72.4533 147.363 72.88 147.163 73.44C146.963 73.9867 146.863 74.6533 146.863 75.44C146.863 76.2267 146.963 76.9067 147.163 77.48C147.363 78.0533 147.65 78.5 148.023 78.82C148.41 79.1267 148.863 79.28 149.383 79.28ZM157.751 82V69H166.231V71.88H161.191V82H157.751ZM170.836 82V71.88H167.396V69H177.716V71.88H174.276V82H170.836ZM179.645 82V69H188.045V71.88H183.085V73.92H187.325V76.8H183.085V79.12H188.245V82H179.645ZM190.758 82V69H195.438C196.345 69 197.172 69.0933 197.918 69.28C198.665 69.4667 199.258 69.7933 199.698 70.26C200.138 70.7267 200.358 71.3867 200.358 72.24C200.358 72.88 200.212 73.46 199.918 73.98C199.638 74.4867 199.238 74.84 198.718 75.04V75.12C199.425 75.2933 199.972 75.6133 200.358 76.08C200.758 76.5333 200.958 77.1733 200.958 78C200.958 78.9333 200.725 79.6933 200.258 80.28C199.792 80.8667 199.172 81.3 198.398 81.58C197.625 81.86 196.772 82 195.838 82H190.758ZM194.198 74.08H195.358C195.918 74.08 196.332 73.96 196.598 73.72C196.865 73.48 196.998 73.16 196.998 72.76C196.998 72.36 196.865 72.0733 196.598 71.9C196.332 71.7267 195.918 71.64 195.358 71.64H194.198V74.08ZM194.198 79.36H195.598C196.278 79.36 196.778 79.24 197.098 79C197.432 78.76 197.598 78.4 197.598 77.92C197.598 77.44 197.432 77.1 197.098 76.9C196.778 76.7 196.278 76.6 195.598 76.6H194.198V79.36ZM208.484 82.24C207.284 82.24 206.231 81.9733 205.324 81.44C204.418 80.8933 203.711 80.1133 203.204 79.1C202.698 78.0867 202.444 76.8667 202.444 75.44C202.444 74.0133 202.698 72.8067 203.204 71.82C203.711 70.82 204.418 70.06 205.324 69.54C206.231 69.02 207.284 68.76 208.484 68.76C209.684 68.76 210.738 69.02 211.644 69.54C212.551 70.06 213.258 70.82 213.764 71.82C214.271 72.8067 214.524 74.0133 214.524 75.44C214.524 76.8667 214.271 78.0867 213.764 79.1C213.258 80.1133 212.551 80.8933 211.644 81.44C210.738 81.9733 209.684 82.24 208.484 82.24ZM208.484 79.28C209.004 79.28 209.451 79.1267 209.824 78.82C210.211 78.5 210.504 78.0533 210.704 77.48C210.904 76.9067 211.004 76.2267 211.004 75.44C211.004 74.6533 210.904 73.9867 210.704 73.44C210.504 72.88 210.211 72.4533 209.824 72.16C209.451 71.8667 209.004 71.72 208.484 71.72C207.964 71.72 207.511 71.8667 207.124 72.16C206.751 72.4533 206.464 72.88 206.264 73.44C206.064 73.9867 205.964 74.6533 205.964 75.44C205.964 76.2267 206.064 76.9067 206.264 77.48C206.464 78.0533 206.751 78.5 207.124 78.82C207.511 79.1267 207.964 79.28 208.484 79.28ZM216.852 82V69H225.332V71.88H220.292V82H216.852ZM232.332 82.24C231.132 82.24 230.079 81.9733 229.172 81.44C228.265 80.8933 227.559 80.1133 227.052 79.1C226.545 78.0867 226.292 76.8667 226.292 75.44C226.292 74.0133 226.545 72.8067 227.052 71.82C227.559 70.82 228.265 70.06 229.172 69.54C230.079 69.02 231.132 68.76 232.332 68.76C233.532 68.76 234.585 69.02 235.492 69.54C236.399 70.06 237.105 70.82 237.612 71.82C238.119 72.8067 238.372 74.0133 238.372 75.44C238.372 76.8667 238.119 78.0867 237.612 79.1C237.105 80.1133 236.399 80.8933 235.492 81.44C234.585 81.9733 233.532 82.24 232.332 82.24ZM232.332 79.28C232.852 79.28 233.299 79.1267 233.672 78.82C234.059 78.5 234.352 78.0533 234.552 77.48C234.752 76.9067 234.852 76.2267 234.852 75.44C234.852 74.6533 234.752 73.9867 234.552 73.44C234.352 72.88 234.059 72.4533 233.672 72.16C233.299 71.8667 232.852 71.72 232.332 71.72C231.812 71.72 231.359 71.8667 230.972 72.16C230.599 72.4533 230.312 72.88 230.112 73.44C229.912 73.9867 229.812 74.6533 229.812 75.44C229.812 76.2267 229.912 76.9067 230.112 77.48C230.312 78.0533 230.599 78.5 230.972 78.82C231.359 79.1267 231.812 79.28 232.332 79.28ZM110.502 110.24C109.382 110.24 108.342 110 107.382 109.52C106.435 109.027 105.668 108.287 105.082 107.3C104.508 106.313 104.222 105.08 104.222 103.6C104.222 102.507 104.388 101.54 104.722 100.7C105.068 99.8467 105.535 99.1267 106.122 98.54C106.722 97.9533 107.395 97.5133 108.142 97.22C108.902 96.9133 109.688 96.76 110.502 96.76C111.368 96.76 112.142 96.9267 112.822 97.26C113.515 97.5933 114.088 98 114.542 98.48L112.742 100.56C112.422 100.28 112.088 100.073 111.742 99.94C111.408 99.7933 111.022 99.72 110.582 99.72C110.088 99.72 109.622 99.8733 109.182 100.18C108.755 100.487 108.408 100.92 108.142 101.48C107.875 102.04 107.742 102.707 107.742 103.48C107.742 104.293 107.868 104.987 108.122 105.56C108.375 106.12 108.728 106.547 109.182 106.84C109.635 107.133 110.155 107.28 110.742 107.28C111.208 107.28 111.628 107.187 112.002 107C112.375 106.8 112.688 106.573 112.942 106.32L114.662 108.36C114.088 109 113.448 109.473 112.742 109.78C112.048 110.087 111.302 110.24 110.502 110.24ZM116.501 110V97H124.901V99.88H119.941V101.92H124.181V104.8H119.941V107.12H125.101V110H116.501ZM127.614 110V97H132.374C133.32 97 134.194 97.1333 134.994 97.4C135.794 97.6667 136.434 98.1133 136.914 98.74C137.407 99.3667 137.654 100.227 137.654 101.32C137.654 102.373 137.407 103.24 136.914 103.92C136.434 104.587 135.794 105.08 134.994 105.4C134.207 105.72 133.36 105.88 132.454 105.88H131.054V110H127.614ZM131.054 103.16H132.294C132.974 103.16 133.474 103 133.794 102.68C134.127 102.347 134.294 101.893 134.294 101.32C134.294 100.733 134.114 100.32 133.754 100.08C133.394 99.84 132.88 99.72 132.214 99.72H131.054V103.16ZM139.782 110V97H144.462C145.368 97 146.195 97.0933 146.942 97.28C147.688 97.4667 148.282 97.7933 148.722 98.26C149.162 98.7267 149.382 99.3867 149.382 100.24C149.382 100.88 149.235 101.46 148.942 101.98C148.662 102.487 148.262 102.84 147.742 103.04V103.12C148.448 103.293 148.995 103.613 149.382 104.08C149.782 104.533 149.982 105.173 149.982 106C149.982 106.933 149.748 107.693 149.282 108.28C148.815 108.867 148.195 109.3 147.422 109.58C146.648 109.86 145.795 110 144.862 110H139.782ZM143.222 102.08H144.382C144.942 102.08 145.355 101.96 145.622 101.72C145.888 101.48 146.022 101.16 146.022 100.76C146.022 100.36 145.888 100.073 145.622 99.9C145.355 99.7267 144.942 99.64 144.382 99.64H143.222V102.08ZM143.222 107.36H144.622C145.302 107.36 145.802 107.24 146.122 107C146.455 106.76 146.622 106.4 146.622 105.92C146.622 105.44 146.455 105.1 146.122 104.9C145.802 104.7 145.302 104.6 144.622 104.6H143.222V107.36ZM152.028 110V97H155.428V100.76C155.428 101.56 155.375 102.413 155.268 103.32C155.161 104.213 155.068 105.013 154.988 105.72H155.068L156.308 102.8L159.188 97H162.828V110H159.428V106.24C159.428 105.44 159.481 104.6 159.588 103.72C159.695 102.827 159.788 102.013 159.868 101.28H159.788L158.548 104.18L155.668 110H152.028ZM171.42 110.24C170.3 110.24 169.26 110 168.3 109.52C167.353 109.027 166.586 108.287 166 107.3C165.426 106.313 165.14 105.08 165.14 103.6C165.14 102.507 165.306 101.54 165.64 100.7C165.986 99.8467 166.453 99.1267 167.04 98.54C167.64 97.9533 168.313 97.5133 169.06 97.22C169.82 96.9133 170.606 96.76 171.42 96.76C172.286 96.76 173.06 96.9267 173.74 97.26C174.433 97.5933 175.006 98 175.46 98.48L173.66 100.56C173.34 100.28 173.006 100.073 172.66 99.94C172.326 99.7933 171.94 99.72 171.5 99.72C171.006 99.72 170.54 99.8733 170.1 100.18C169.673 100.487 169.326 100.92 169.06 101.48C168.793 102.04 168.66 102.707 168.66 103.48C168.66 104.293 168.786 104.987 169.04 105.56C169.293 106.12 169.646 106.547 170.1 106.84C170.553 107.133 171.073 107.28 171.66 107.28C172.126 107.28 172.546 107.187 172.92 107C173.293 106.8 173.606 106.573 173.86 106.32L175.58 108.36C175.006 109 174.366 109.473 173.66 109.78C172.966 110.087 172.22 110.24 171.42 110.24ZM175.779 110L179.739 97H183.899L187.859 110H184.219L182.739 103.68C182.579 103.053 182.419 102.373 182.259 101.64C182.099 100.907 181.939 100.213 181.779 99.56H181.699C181.565 100.213 181.419 100.907 181.259 101.64C181.099 102.373 180.939 103.053 180.779 103.68L179.299 110H175.779ZM178.619 107.24V104.58H184.979V107.24H178.619Z" fill="black"/>
<g clip-path="url(#clip0_2_74)">
<path fill-rule="evenodd" clip-rule="evenodd" d="M33.2909 22.0636C33.3456 22.6239 33.2857 23.1896 33.1149 23.7252C33.011 24.2171 32.796 24.6776 32.4869 25.0705C32.0937 25.5239 31.5244 25.7029 31.0754 26.0579C30.7081 26.4036 30.3686 26.7787 30.0601 27.1795C29.0396 28.3024 28.1231 29.5187 27.3223 30.8128C27.5306 30.6785 27.8798 30.7561 28.1615 30.6338C28.5518 30.4667 28.7954 29.8731 29.3089 29.6912C29.7784 29.5271 30.3183 29.5718 30.8113 29.5122C31.2515 29.4585 31.6917 29.2646 32.1348 29.3779C32.2727 29.8045 31.7826 30.0253 31.5479 30.2728C30.9228 30.9709 30.1658 31.9403 28.813 31.3944C28.6164 31.3139 28.4022 31.0693 28.1498 31.0335C27.728 31.0428 27.3164 31.1675 26.9584 31.3944C26.5447 31.6927 26.2189 32.5876 25.9871 33.2767C25.7409 34.0372 25.5641 34.819 25.4589 35.6124C25.2036 37.3038 25.1655 39.1622 24.872 40.7253C24.2852 44.0274 22.7915 46.557 21.9141 49.1164C22.3778 48.7615 23.4107 48.8181 24.3438 48.669C24.9307 48.5765 25.4179 48.2156 25.8433 48.3975C25.8196 48.7047 25.7327 49.0034 25.5881 49.2742C25.4435 49.5451 25.2445 49.782 25.0041 49.9696C24.8026 50.1169 24.5717 50.2174 24.3278 50.2638C24.0839 50.3102 23.8329 50.3014 23.5926 50.238C23.0791 50.1217 22.5157 49.54 22.0022 49.7011C21.829 49.7548 21.5591 50.2351 21.474 50.4618C21.3418 50.9331 21.2437 51.4137 21.1805 51.8996C20.8347 53.4149 20.6566 54.9647 20.6494 56.5202C20.8548 56.0847 21.2363 55.8043 21.3566 55.3539C21.4769 54.9034 21.4094 54.5544 21.4886 54.2323C21.6052 53.7514 21.8325 53.3056 22.1518 52.9317C22.6566 52.3888 23.2434 52.0607 23.7394 51.4939C23.8714 51.3418 24.0093 51.0345 24.3262 51.0912C24.5287 51.6878 24.2529 52.2844 24.1502 52.8392C24.0152 53.585 23.9477 54.2889 23.5633 54.7692C23.342 55.0222 23.0711 55.2254 22.7681 55.3658C22.4746 55.5269 22.1812 55.5895 21.8408 55.7685C21.2539 56.0668 20.7609 56.9617 20.6934 57.6985C20.6377 58.316 20.8167 59.1423 20.9135 59.9865C20.937 60.1714 20.981 60.6726 21.0485 61.1081C21.1042 61.478 21.2216 61.9553 20.9135 62.003C20.4704 62.0746 20.5496 60.9649 20.5174 60.6129C20.4997 60.4041 20.4499 60.0879 20.4293 59.8045C20.4388 59.5194 20.424 59.2339 20.3853 58.9514C20.2767 58.6531 19.8219 58.4204 19.458 58.1877C19.0942 57.9551 18.6628 57.8089 18.3547 57.5911C17.4479 56.9945 17.1809 55.6194 16.6762 54.5843C16.5177 54.2651 16.2125 53.9191 16.3241 53.5522C16.6527 53.4835 16.8493 53.7968 17.0753 53.9549C17.9761 54.5932 19.0824 55.0705 19.2379 56.559C19.2189 56.8464 19.2487 57.135 19.326 57.4121C19.4962 57.794 20.039 57.9312 20.2973 58.2176C20.1124 57.1317 20.4235 55.9415 20.2533 55.1242C20.1682 54.7125 19.7955 54.3665 19.502 54.0026C18.6599 52.9556 17.7913 51.9771 17.4274 50.5005C17.0469 50.3092 16.6475 50.1592 16.236 50.0531C15.4672 49.7966 15.0153 49.2029 14.5311 48.5348C14.3257 48.2514 13.9648 47.9531 14.0029 47.5504C14.6192 47.4549 15.1327 47.8218 15.5904 48.0426C16.0604 48.2617 16.5052 48.5328 16.9168 48.8509C16.6821 48.2335 16.4326 47.5563 16.1656 46.9209C16.1022 46.7117 16.0135 46.5113 15.9015 46.3243C15.6403 46.0052 15.1209 45.8799 14.8422 45.516C14.4225 44.9701 14.5164 43.9081 14.3991 42.9118C14.3727 42.6911 14.2964 42.4643 14.267 42.2406C14.2377 42.0169 14.132 41.7753 14.3551 41.644C14.6485 41.6709 14.76 42.0109 14.8862 42.2406C15.0124 42.4703 15.1415 42.694 15.2823 42.9118C15.6433 43.4696 16.192 44.0304 16.2536 44.8418C16.2771 45.158 16.1627 45.5249 16.2096 45.8739C16.2695 46.0948 16.3584 46.3065 16.4737 46.5033C16.7349 47.1178 16.955 47.8487 17.2249 48.4303C17.2612 48.0426 17.3604 47.6636 17.5184 47.3087C17.6357 47.0403 17.7913 46.4467 18.1053 46.4586C18.4603 46.4586 18.5865 47.4519 18.6775 47.8039C18.8271 48.3677 19.056 48.848 19.0325 49.3282C18.9914 50.1754 18.1669 50.6109 18.3253 51.5714C18.4104 52.0964 19.0032 52.6483 19.2966 53.0092C19.7221 53.5253 19.9451 53.8326 20.356 54.3546C20.356 53.758 20.6494 53.0391 20.6494 52.4693C20.6494 51.7981 20.2474 50.954 20.0332 50.3603C19.7712 49.6865 19.5497 48.9972 19.37 48.2961C18.9914 46.6793 19.2614 45.0357 18.6188 43.586C17.7766 43.1385 16.8141 43.1296 16.3241 42.3301C16.0939 41.8462 15.931 41.3322 15.8399 40.8028C15.7049 40.2838 15.4584 39.7439 15.5464 39.189C15.9778 39.1592 16.1715 39.55 16.3827 39.7856C16.6018 40.044 16.8546 40.2708 17.134 40.4598C17.134 40.0671 17.1654 39.675 17.2279 39.2875C17.2543 38.8132 17.134 38.2911 17.3159 37.8974C17.7414 37.8228 17.9028 38.5119 18.1111 38.9742C18.4456 39.723 18.8535 40.8535 18.4192 41.7991C18.6423 42.7984 19.326 43.7978 19.4786 44.9402C19.6047 45.8829 19.4786 46.8344 19.6986 47.8129C19.8517 47.5181 19.9559 47.1996 20.0068 46.8702C20.0302 46.3184 19.8043 45.7695 19.8776 45.164C19.951 44.5584 20.1095 44.0453 20.1858 43.4159C20.2063 43.2369 20.0919 42.9894 20.3178 42.876C20.6876 42.9267 20.6582 43.6277 20.802 44.1766C20.9839 44.8657 21.474 45.8739 21.113 46.563C20.9663 46.8344 20.6406 46.9627 20.3618 47.1596C20.1828 47.789 19.9129 48.2872 20.0068 49.0001C20.1183 49.8234 20.7081 50.6497 20.846 51.3865C21.2072 50.0141 21.6501 48.6653 22.1724 47.3475C22.413 46.7509 22.8913 46.1871 22.6125 45.4205C22.4404 45.0735 22.2167 44.7556 21.9494 44.4779C21.6559 44.1289 21.2392 43.8306 21.1571 43.3563C21.0456 42.7269 21.1864 41.9304 21.1571 41.2473C21.1336 40.77 20.9194 40.2897 21.1571 39.902C21.5004 39.8841 21.5385 40.2778 21.6412 40.4986C22.0609 41.3427 22.7827 42.1094 22.6566 43.5054C22.5866 43.785 22.5424 44.0706 22.5245 44.3586C22.5626 44.7702 22.906 45.0506 23.0087 45.3907C23.4012 44.4995 23.7402 43.5851 24.024 42.6523C24.1854 42.1243 24.4084 41.6828 24.2001 41.128C24.0445 40.7074 23.578 40.4628 23.1847 40.0959C22.7915 39.7289 22.2076 39.1502 22.0843 38.5686C21.9611 37.9869 21.9582 37.3366 21.8613 36.6863C21.8181 36.3851 21.7593 36.0863 21.6853 35.7914C21.6236 35.5438 21.4828 35.2246 21.6412 34.983C21.8877 34.8398 22.0814 35.1202 22.2281 35.2515C22.815 35.8481 23.7423 36.5401 23.8597 37.6379C23.9448 38.4224 23.6308 39.3143 23.8597 40.0243C23.9682 40.3554 24.3233 40.4807 24.4788 40.7849C24.693 39.4993 24.8955 37.6379 25.007 36.0748C25.0494 35.6263 25.0346 35.1741 24.963 34.7294C24.8867 34.4043 24.5434 33.7659 24.2588 33.7421C23.7922 33.7003 23.4078 33.9002 23.0204 33.8316C21.9992 33.6466 21.5972 32.2834 21.3449 31.1856C21.292 30.9649 21.1629 30.6875 21.3889 30.5115C21.8848 30.6547 21.9963 31.2214 22.3162 31.5883C22.8796 32.2357 23.7364 32.3997 24.4348 32.9337C24.0621 32.0925 23.8186 31.2065 23.3315 30.3325C22.7651 29.3183 21.9934 28.6799 22.1841 27.1019C22.234 26.6873 22.5362 26.3592 22.7123 25.9803C22.8238 25.7357 22.8238 25.2942 23.0644 25.2614C23.4518 25.2107 23.6513 26.3263 23.7276 26.8334C23.8949 27.9193 23.845 28.7127 23.9037 29.7926C24.0064 31.654 25.0452 32.6026 25.2711 34.2343C25.5054 33.2852 25.872 32.3751 26.3598 31.5317C26.5153 31.2751 26.7941 30.9351 26.8029 30.7233C26.8205 30.3325 26.3393 29.897 26.1837 29.5122C25.7201 28.3578 26.2835 27.2541 26.5388 26.2309C26.5828 26.0519 26.5564 25.7447 26.8029 25.6343C27.1902 25.6074 27.2196 26.204 27.3311 26.6187C27.4954 27.2153 27.7214 27.7641 27.6421 28.5487C27.5835 29.1453 27.2431 29.536 27.2431 30.0402C27.5189 29.8522 27.7038 29.4227 28.0383 28.9633C28.4462 28.4085 29.0859 28.0684 28.9656 27.081C28.9304 26.8066 28.6985 26.4337 28.6721 26.0937C28.5577 25.1988 28.7866 24.5037 29.0243 23.7073C29.1446 23.3105 29.3353 22.4962 29.5525 22.4962C29.8459 22.4962 29.8987 23.4119 29.9515 23.7968C30.0513 24.5395 30.1892 25.154 30.0396 25.8162C29.9339 26.2846 29.5935 26.6187 29.5084 27.1168C29.7639 26.9265 29.9963 26.7062 30.201 26.4606C30.4417 26.2244 30.6634 25.969 30.8642 25.6969C31.2398 25.1003 31.3395 24.3128 31.7034 23.6804C32.0673 23.048 32.5661 22.6543 32.9388 22.1084C32.9945 21.9861 33.1765 22.0189 33.2909 22.0636ZM31.4364 25.3449C32.2932 24.975 32.7481 23.9578 32.8067 22.9227C32.1904 23.6231 31.7238 24.4459 31.4364 25.339V25.3449ZM29.1857 26.5501C29.7725 25.9833 29.6581 24.8169 29.5378 23.8147C29.5378 23.7639 29.4908 23.7431 29.4498 23.7252C29.2326 24.5873 28.8071 25.5925 29.1857 26.5501ZM23.4929 29.7419C23.443 28.4323 23.4518 27.0572 23.0938 26.0638C22.1342 26.9915 22.7123 29.0289 23.4929 29.7419ZM26.8469 29.8314C26.9056 29.3571 27.2137 28.9365 27.2431 28.3965C27.2812 27.7999 27.0377 27.2421 26.935 26.6903C26.935 26.6574 26.8968 26.6396 26.8469 26.6455C26.5505 27.5881 26.0957 29.0319 26.8469 29.8254V29.8314ZM28.6721 30.8575C29.7667 31.6003 30.6294 30.7442 31.1429 30.1416C31.2133 30.0581 31.5097 29.9119 31.319 29.8701C30.2391 30.0133 28.9656 29.9387 28.6721 30.8575ZM24.2118 33.2439C23.5105 32.704 22.504 32.4713 21.9611 31.7524C22.1196 32.8382 22.8942 33.7122 24.1971 33.235L24.2118 33.2439ZM22.6243 38.7654C22.7233 38.9423 22.8414 39.1074 22.9764 39.2576C23.0762 39.371 23.3344 39.6544 23.3755 39.5261C23.4477 38.9615 23.4771 38.392 23.4635 37.8228C23.3784 36.8474 22.7593 36.3552 22.1841 35.8033C22.4629 36.6386 22.234 37.9779 22.6096 38.7565L22.6243 38.7654ZM17.8558 41.1876C17.8705 41.301 18.1082 41.5873 18.1229 41.4114C18.3752 40.5165 17.982 39.5708 17.6357 38.9892C17.671 39.7886 17.2279 40.7998 17.8412 41.1787L17.8558 41.1876ZM16.7378 42.2108C17.1017 42.7328 17.8147 42.8462 18.4163 43.0162C17.9028 41.8051 17.0078 40.9788 16.1216 40.1466C16.3974 40.8446 16.3475 41.6739 16.7378 42.2108ZM21.8584 43.7799C21.9112 43.8425 22.0961 44.0782 22.1254 43.9141C22.4922 42.8969 22.0051 41.8648 21.5385 41.2682C21.5356 42.2347 21.471 43.3324 21.8584 43.7799ZM15.8135 45.7546C16.0042 44.4272 15.3528 43.7977 14.8422 43.0699C14.8539 44.275 14.8598 45.4951 15.8135 45.7546ZM20.4557 46.6077C21.1336 46.2408 20.6406 45.0894 20.4557 44.5435C20.2591 45.0804 20.1623 46.0947 20.4557 46.6077ZM18.073 50.6437C18.161 50.1336 18.6305 49.8264 18.6599 49.2984C18.6892 48.7704 18.1111 47.6488 18.073 47.1894C17.4802 47.9382 17.5477 49.889 18.0642 50.6437H18.073ZM17.1457 49.8831C16.7085 48.9524 15.746 48.5526 14.7982 48.132C15.2618 49.0061 16.0071 49.8324 17.1369 49.8831H17.1457ZM22.5744 49.3431C23.1613 49.4505 23.6044 49.9696 24.2529 49.8831C24.8163 49.8055 25.0804 49.3163 25.3562 48.8509C24.5962 49.194 23.3403 49.024 22.5656 49.3431H22.5744ZM21.7792 55.3091C23.3579 55.1331 23.8098 53.573 23.8538 51.9891C22.9735 52.9138 21.7469 53.4746 21.7704 55.3121L21.7792 55.3091ZM18.9093 57.3286C18.9416 55.7566 18.1375 55.0317 17.1486 54.5007C17.6534 55.506 17.8294 57.0691 18.9005 57.3316L18.9093 57.3286Z" fill="#AA3B77"/>
<path fill-rule="evenodd" clip-rule="evenodd" d="M56.4612 6.58487C58.0868 6.41484 60.3992 6.28657 61.1856 7.34851C61.1856 8.52083 61.2472 9.6484 61.2736 10.8028C63.5918 11.5187 66.4089 11.8439 68.3808 13.0371C68.6361 13.1952 69.0293 13.3563 68.9971 13.756C68.9237 13.9171 68.73 13.9588 68.4689 13.935C67.7939 15.3817 65.3994 15.5309 63.4803 15.2356C62.8465 15.1371 62.1628 14.9373 61.4057 15.0566V15.7278C62.8174 16.0429 64.2043 16.4637 65.555 16.9866C66.5247 17.3003 67.4576 17.7215 68.3368 18.2424C68.7946 18.5407 69.4343 19.2149 68.3368 19.2298C67.4829 20.077 66.2123 20.423 64.5837 20.3067C63.4363 20.2201 62.4562 19.6056 61.4937 19.4535C61.4614 19.886 61.8752 19.9875 62.1129 20.1694C62.8612 20.766 63.4158 21.4074 63.3923 22.8541C63.7118 23.0931 64.0516 23.3027 64.4076 23.4806C64.7011 23.6745 65.1412 23.8952 65.1148 24.289C65.1148 24.5216 64.8214 24.462 64.5837 24.4679C64.4483 24.7303 64.2539 24.9565 64.0162 25.128C63.7786 25.2996 63.5045 25.4117 63.2162 25.4553C62.9228 28.3965 62.5208 31.2095 61.0976 32.9933C61.7159 33.1823 62.2873 33.5037 62.7731 33.936C62.8942 34.026 62.9959 34.1401 63.0721 34.2714C63.1482 34.4027 63.1973 34.5484 63.2162 34.6996C63.2016 35.4871 61.435 35.9226 60.7454 36.1344C59.7137 36.4291 58.6677 36.669 57.6115 36.8533C56.5874 37.0562 55.6513 37.5484 54.6095 37.7482C52.4645 38.1659 50.1375 38.4582 48.2096 39.0936C45.8121 39.8811 43.9693 41.3129 41.8096 42.3749C41.5866 42.4823 41.3753 42.6046 41.1464 42.6732C40.9175 42.7418 40.6622 42.7895 40.4421 42.8969C39.9491 43.1445 39.5148 43.6725 39.1158 44.108C38.7102 44.5543 38.3567 45.0468 38.0623 45.5756C37.4167 46.745 37.135 47.9382 36.777 49.2984C34.5967 49.6832 32.0819 49.194 30.3213 48.6272C28.989 48.2277 27.7244 47.6242 26.5711 46.8374C26.2776 46.6226 25.6907 46.1692 25.6438 45.9425C25.5851 45.6621 25.7993 44.7225 25.8639 44.3735C26.709 39.7289 29.0918 36.916 31.1605 33.6048C31.6242 32.8621 31.9998 32.0805 32.4399 31.3169C33.3072 29.7603 34.0908 28.1571 34.7875 26.5143C35.4771 24.9601 36.3163 22.9734 37.2143 21.8041C38.2354 20.4797 39.5882 19.5042 40.6153 18.0813C41.5631 16.7658 42.326 15.0088 43.042 13.3682C43.7786 11.6768 44.3919 9.85423 45.5128 8.70279C46.2699 7.92423 47.2911 7.30079 48.2947 6.68331C49.2982 6.06583 50.3488 5.51994 51.3846 4.98001C52.4205 4.44009 53.4974 4.01352 54.6125 3.40798C55.7276 2.80243 56.8045 2.13722 58.1338 2.0179C58.6062 1.97614 58.9906 2.10142 59.0611 2.24162C59.1315 2.38182 59.0405 2.43552 59.0171 2.64433C59.0016 3.05331 58.9425 3.45937 58.841 3.85542C58.4067 4.983 57.2623 5.89579 56.4612 6.58487ZM55.2258 3.57801C55.3137 3.64378 55.4144 3.68977 55.5211 3.71292C55.6279 3.73606 55.7383 3.73583 55.8449 3.71224C56.3262 3.67645 56.8779 3.38113 57.3444 3.1753C57.811 2.96947 58.3539 2.73978 58.6238 2.41165C57.4119 2.49966 56.2422 2.90115 55.2258 3.57801V3.57801ZM35.7617 43.0162C35.2981 42.9297 34.5879 42.9148 34.5703 42.524C34.8462 42.2764 35.2599 42.4703 35.5416 42.524C35.8967 42.5896 36.2547 42.697 36.601 42.7477C38.7324 43.0394 40.8977 42.5805 42.7368 41.4472C44.8966 40.1764 46.98 38.7416 49.7531 38.2613C49.7355 37.8168 49.2924 37.0681 49.665 36.7698C50.1081 36.9339 49.8851 37.8974 50.1962 38.1599C50.2813 38.0972 50.4485 38.1181 50.5483 38.0704C50.6334 37.8676 50.158 37.3962 50.5483 37.262C50.8711 37.3246 50.8212 37.7602 50.9885 37.9809C52.2737 37.6498 53.5209 37.5693 54.7416 37.3067C55.9623 37.0442 56.96 36.3671 58.2277 36.3194C58.1896 36.0002 57.9108 35.6273 58.0076 35.1978C58.1045 34.7682 58.7735 34.4222 59.4191 34.2104C60.218 33.946 61.0526 33.8102 61.8928 33.8077C60.719 33.0709 59.0376 32.9128 57.3444 33.0888C56.0592 33.223 54.8971 33.4199 54.0344 33.8524C53.7908 33.9747 53.4475 34.3953 53.1541 34.0762C53.1541 33.6436 53.6852 33.751 53.8143 33.4497C52.485 33.2946 51.0648 33.4318 49.665 33.3602C48.2653 33.2887 47.0739 33.1186 45.7388 33.223C45.4453 33.2469 44.8584 33.4318 44.7675 33.044C44.8819 32.7457 45.2986 32.8442 45.6038 32.8203C46.1907 32.7756 46.892 32.6592 47.4583 32.7756C47.1913 32.5071 46.8891 32.2476 46.578 31.9224C45.7388 31.0544 44.876 29.6733 44.7704 28.1549C44.6706 26.738 44.9846 25.6313 45.2106 24.6111C45.2575 24.4023 45.2106 24.0354 45.5187 24.0145C45.7564 24.1786 45.5979 24.4679 45.5627 24.6887C45.3514 26.0131 44.9318 27.3734 45.2986 28.8649C45.6654 28.5397 45.9999 28.1758 46.3579 27.8328C46.7159 27.4897 47.115 27.2063 47.4613 26.8484C47.8926 26.4039 48.2066 25.8371 48.6967 25.4553C49.7443 24.6439 51.2584 24.5604 52.5378 23.8862C52.5202 22.881 52.5173 21.8906 52.846 21.2373C52.0537 21.4939 51.1763 21.5953 50.4984 21.9562C50.1463 22.1472 49.8939 22.6394 49.4831 22.4514C49.4831 22.0726 49.8558 21.8876 50.1023 21.7325C50.3915 21.5452 50.7018 21.394 51.0266 21.2821C51.7103 21.0643 52.5672 21.0285 53.1482 20.6855C53.6559 20.3872 53.92 19.8831 54.4716 19.6981C54.5244 18.4542 54.5978 17.2252 54.6477 15.9753C53.7087 15.9753 53.4563 16.4944 52.887 16.9627C51.6282 17.9889 50.0582 18.7197 49.1368 19.8324C49.0048 19.9905 48.8727 20.3574 48.55 20.1903C48.4971 19.892 48.7348 19.6235 48.9021 19.4297C49.8704 18.308 51.1557 17.7204 52.3471 16.8255C52.8107 16.4795 53.2891 15.9157 53.7145 15.7486C54.0344 15.6263 54.4247 15.6562 54.6858 15.5249C54.7211 13.8276 54.8414 12.2138 54.9059 10.5463C53.4798 10.3822 52.6112 10.9699 51.816 11.4889C50.7647 12.2333 49.6224 12.835 48.4179 13.2787C47.5376 14.9402 47.6931 17.7532 47.1385 19.6951C47.071 19.9308 47.0123 20.3574 46.6954 20.3693C46.4812 20.1993 46.6044 19.889 46.6543 19.6951C46.713 19.4535 46.8245 19.2179 46.8744 18.9762C47.1913 17.446 47.2324 15.6174 47.6227 14.1766C47.9631 12.9327 48.9549 11.656 49.6973 10.7223C49.9908 10.3613 50.2842 9.98847 50.5366 9.69017C51.1329 9.02811 51.8532 8.49366 52.6552 8.11813C54.2398 7.32465 56.0797 6.54907 57.2447 5.33797C57.8315 4.72348 58.436 3.99861 58.6121 3.00527C58.2482 3.11862 57.7699 3.44974 57.2006 3.67645C56.6754 3.88824 55.9535 4.16864 55.44 4.08213C55.1642 4.0344 55.0585 3.80471 54.7768 3.72119C51.9744 5.16794 48.6732 6.52222 46.3462 8.49398C45.5446 9.19145 44.9103 10.0658 44.4916 11.0504C43.0714 14.1736 42.0179 17.4102 39.823 19.6414C39.0606 20.3625 38.3386 21.1263 37.6603 21.9294C36.4102 23.5223 35.6062 25.7864 34.7024 27.8059C33.7845 29.7873 32.7679 31.7198 31.6564 33.5959C30.0689 36.3313 27.9855 38.6998 26.8909 42.0766C26.6119 42.9556 26.3903 43.8525 26.2277 44.7613C26.1487 45.0846 26.1045 45.4156 26.0957 45.7486C26.1515 46.0171 26.6444 46.3184 26.976 46.557C29.2913 48.2126 32.6982 49.1552 36.422 48.9792C36.956 46.5033 37.8892 44.4331 39.5559 43.0997C39.5794 43.0997 39.6058 43.0639 39.5559 43.055C38.3822 43.3831 36.8563 43.222 35.7617 43.0162ZM58.8469 6.89808C57.6731 6.82351 56.2616 6.93089 55.5368 7.34851C55.8479 7.77807 56.649 7.87949 57.3444 7.9302C58.5593 8.02267 59.9443 7.9302 60.6985 7.48275C60.364 7.0711 59.5834 6.94581 58.8469 6.89808ZM55.0057 7.438C53.7204 8.22253 52.3647 8.55364 51.3435 9.54698C50.4094 10.499 49.5808 11.5523 48.8727 12.6881C49.5918 12.3888 50.2848 12.0285 50.9444 11.6112C51.5695 11.2025 52.1476 10.6596 52.887 10.3971C53.4739 10.1883 54.1841 10.2719 54.9617 10.1287C54.9147 9.19797 55.1319 8.29711 55.0057 7.438ZM55.4488 7.9302C55.2991 11.8767 55.0204 15.9306 54.9177 19.7757C55.5045 20.3484 56.7752 20.4886 57.9636 20.4946C59.152 20.5005 60.4432 20.4081 61.0976 19.8652C61.0066 15.859 60.9303 11.8379 60.7454 7.93318C59.3868 8.56259 56.8426 8.48802 55.4488 7.9302ZM61.4057 14.6598C62.6176 14.5137 63.539 14.9223 64.7157 14.976C66.0215 15.0327 67.2922 14.7493 67.8937 14.1676C67.8937 14.1676 68.1255 13.9976 67.9817 13.9439C66.8579 13.5621 65.3818 13.5352 65.1588 12.2376C63.9058 11.8648 62.5501 11.5993 61.2736 11.2503C61.3499 12.354 61.3059 13.58 61.4057 14.6598ZM65.6459 12.5509C66.2328 13.1475 67.3714 13.4458 68.3397 13.4935C67.4839 12.99 66.5621 12.6123 65.6019 12.3719C65.5934 12.4351 65.6091 12.4992 65.6459 12.5509V12.5509ZM61.4937 19.0568C62.553 19.1612 63.5302 19.8234 64.7216 19.9099C65.9717 20.0024 67.0075 19.7906 67.7675 19.194C66.626 18.7913 64.613 18.6809 64.6336 17.1298C63.5302 16.8464 62.7262 16.2587 61.4057 16.1871C61.4673 17.1119 61.479 18.0843 61.4937 19.0568ZM65.731 18.1082C66.5595 18.5059 67.4569 18.734 68.372 18.7794C67.3269 18.0972 66.1791 17.5933 64.974 17.2879C65.0385 17.7622 65.3349 17.9292 65.731 18.1082ZM53.2421 21.3C52.6552 22.4156 52.9692 24.2084 53.1101 25.6969C53.3653 28.4323 53.7586 31.8687 55.3608 32.9217C56.9307 32.698 58.9936 32.3908 60.5664 32.8323C62.016 31.6689 62.5296 28.2444 62.8201 25.6552C62.9648 24.66 63.0237 23.6539 62.9961 22.6483C62.9834 22.1211 62.8229 21.6086 62.5333 21.171C62.2437 20.7334 61.8372 20.3891 61.3617 20.1784C59.9238 21.1866 56.0797 21.2135 54.6125 20.0889C54.2017 20.414 53.5326 20.7332 53.2421 21.3ZM64.2756 23.9847C64.4399 23.9847 64.2139 23.8683 64.1875 23.8505C63.944 23.6625 63.6006 23.4895 63.3923 23.3553V23.6715C63.6921 23.7631 63.9869 23.8706 64.2756 23.9936V23.9847ZM63.2984 25.0258C63.4902 25.0011 63.6723 24.9259 63.8268 24.8077C63.9812 24.6894 64.1025 24.5322 64.1787 24.3516C63.8383 24.3516 63.6623 24.1607 63.3395 24.1279C63.3835 24.4769 63.2808 24.6887 63.2984 25.0258ZM54.4716 32.698C53.022 30.765 52.8518 27.4867 52.5731 24.3963C52.5731 24.3695 52.5731 24.3426 52.529 24.3516C51.2496 25.0436 49.6885 25.0496 48.7759 25.9236C48.2301 26.4486 47.9367 27.2869 47.6726 28.0774C47.3087 29.1751 46.9771 30.4011 46.5252 31.3079C47.2207 32.3043 48.3093 32.7994 49.8792 32.9217C51.3787 33.0411 53.1365 32.9635 54.6917 33.056C54.7299 32.8919 54.5567 32.8054 54.4775 32.698H54.4716ZM46.399 28.3458C46.2024 28.5338 45.5422 29.1751 45.5187 29.4227C45.4952 29.6703 45.7476 29.9417 45.8738 30.1863C45.9694 30.444 46.103 30.6853 46.2699 30.9023C46.7247 29.8552 47.0739 28.4592 47.4173 27.4479C47.159 27.7104 46.7658 27.9938 46.399 28.3458ZM60.9655 35.6154C61.3147 35.502 62.867 35.1172 62.7731 34.628C62.7056 34.2701 61.5759 34.2223 61.0536 34.2671C59.8416 34.3774 57.4178 35.0606 58.7588 36.1971C59.5071 36.033 60.1732 35.866 60.9655 35.6154Z" fill="#AA3B77"/>
<path fill-rule="evenodd" clip-rule="evenodd" d="M46.443 10.7133C46.0322 10.9251 45.7564 10.3345 45.3837 10.2182C45.3837 10.0988 45.3837 9.96162 45.4277 9.90495H45.5157C45.8561 10.078 46.3726 10.2271 46.443 10.7133Z" fill="#BF8294"/>
<path fill-rule="evenodd" clip-rule="evenodd" d="M45.7828 11.116C45.7388 11.116 45.7476 11.1727 45.7388 11.2055C45.4453 11.2891 45.2077 11.0325 45.0316 10.8476C45.1431 10.3763 45.7476 10.8207 45.7828 11.116Z" fill="#BF8294"/>
<path fill-rule="evenodd" clip-rule="evenodd" d="M53.5502 11.116C53.7015 11.4274 53.8054 11.7603 53.8583 12.1034C53.9346 12.4345 54.1166 12.8581 53.8583 13.0908C53.5297 13.0311 53.5649 12.5658 53.5062 12.2376C53.3996 11.9171 53.3258 11.5862 53.2861 11.2503C53.2861 11.1787 53.3272 11.1727 53.3301 11.116H53.5502Z" fill="#BF8294"/>
<path fill-rule="evenodd" clip-rule="evenodd" d="M52.9751 11.474C53.1102 11.7509 53.1574 12.0636 53.1101 12.3689C53.0572 12.3689 53.0308 12.3689 53.0191 12.4136C52.6787 12.4405 52.5114 11.4322 52.9751 11.474Z" fill="#BF8294"/>
<path fill-rule="evenodd" clip-rule="evenodd" d="M58.5388 19.9547C58.4449 20.3544 57.8697 20.253 57.5205 20.2231C56.8309 20.1873 55.9242 20.0591 55.6249 19.7309C55.6484 19.6653 55.6894 19.6176 55.7129 19.552C55.7481 19.552 55.7569 19.5072 55.8009 19.5072C56.3438 19.7458 57.1508 19.7667 58.0076 19.8204C58.1808 19.8324 58.4273 19.7458 58.5388 19.9547Z" fill="#BF8294"/>
<path fill-rule="evenodd" clip-rule="evenodd" d="M59.9062 19.7757C59.9385 20.1366 59.1667 20.1993 59.0259 19.9547C59.067 19.6593 59.7566 19.549 59.9062 19.7757Z" fill="#BF8294"/>
<path fill-rule="evenodd" clip-rule="evenodd" d="M59.7771 21.9294C59.5952 22.2456 59.0963 22.1084 58.7618 22.1084C57.8923 22.0939 57.0226 22.1238 56.156 22.1979C55.8831 22.2307 55.6219 22.4037 55.4077 22.1979C55.349 21.8429 55.8009 21.8727 56.068 21.8399C56.9917 21.7372 57.9207 21.6924 58.8498 21.7057C59.1902 21.7057 59.6861 21.5983 59.7771 21.9294Z" fill="#BF8294"/>
<path fill-rule="evenodd" clip-rule="evenodd" d="M61.2737 21.9861C61.3265 22.3381 60.7014 22.2277 60.5665 22.1203C60.452 21.7206 61.215 21.7713 61.2737 21.9861Z" fill="#BF8294"/>
<path fill-rule="evenodd" clip-rule="evenodd" d="M61.9808 27.269C62.1246 27.5673 61.9808 27.8984 61.9368 28.2116C61.7842 29.1065 61.6052 30.2728 61.1856 30.947C60.5987 31.8777 59.3369 32.2744 57.8315 32.2058C57.6555 32.2058 57.3092 32.3072 57.2447 32.0239C57.321 31.6241 58.0546 31.827 58.436 31.8001C59.3927 31.7345 60.3728 31.4541 60.8217 30.7233C61.3646 29.8284 61.347 28.6113 61.7021 27.4032C61.6975 27.3737 61.7041 27.3435 61.7204 27.3187C61.7367 27.2938 61.7616 27.2761 61.7901 27.269H61.9808Z" fill="#BF8294"/>
<path fill-rule="evenodd" clip-rule="evenodd" d="M54.4335 29.5569C54.6712 29.5927 54.7563 29.9924 54.6536 30.2311C54.2633 30.3385 54.1078 29.6166 54.4335 29.5569Z" fill="#BF8294"/>
<path fill-rule="evenodd" clip-rule="evenodd" d="M56.6402 32.0239C55.798 32.0656 54.9617 31.5675 54.7856 30.768C54.812 30.7054 54.9558 30.768 54.9617 30.6785C54.9991 30.7088 55.0459 30.7247 55.0937 30.7233C55.3136 31.1281 55.6765 31.433 56.109 31.5764C56.2998 31.657 56.7047 31.6629 56.6402 32.0239Z" fill="#BF8294"/>
<path fill-rule="evenodd" clip-rule="evenodd" d="M47.2823 42.1213C47.429 42.3987 47.1884 42.6672 47.0622 42.8372C46.3902 43.7321 45.7182 44.6986 44.5885 45.2624C44.2246 45.4414 43.6583 45.6234 43.444 45.8888C43.2972 46.1287 43.1781 46.3849 43.089 46.6525C42.9687 46.9031 42.863 47.1566 42.7369 47.4131C42.9833 47.3505 43.1565 47.0552 43.4851 46.921C43.9634 46.7271 44.6589 46.7539 45.2458 46.6525C45.7124 46.5719 46.1261 46.2736 46.4812 46.5183C46.4489 46.9836 45.9941 47.1924 45.7329 47.4609C45.4794 47.779 45.1662 48.0426 44.8115 48.2365C44.0573 48.5556 43.1682 48.4095 42.5168 48.7764C41.9152 49.1135 41.8624 49.728 41.4574 50.2679C41.968 50.0322 42.7838 50.1456 43.5761 50.0889C44.0163 50.0561 44.4564 49.8353 44.7675 50.0441C44.8262 50.3872 44.4271 50.5423 44.1806 50.7183C43.758 51.0315 43.3971 51.4551 42.7134 51.479C42.1265 51.4999 41.657 51.0375 41.1229 51.0763C40.5126 51.118 39.8963 52.1442 39.5354 52.5111C38.9867 53.0689 38.57 53.5372 38.1239 54.0831C38.9338 53.8773 39.5266 54.0026 40.2397 53.9459C41.5836 53.8445 42.5109 52.9019 43.761 52.869C44.5445 52.8512 45.4395 53.1673 46.2758 53.2747C46.5428 53.3046 46.8627 53.221 47.071 53.4537C47.0152 53.8654 46.4284 54.0503 46.0997 54.2174C45.5128 54.5157 44.9259 54.9064 43.9811 54.799C43.5818 54.7208 43.1954 54.5852 42.8337 54.3963C42.4766 54.2052 42.0874 54.0837 41.6863 54.0384C41.2872 54.0384 40.8911 54.3069 40.4069 54.3367C39.9814 54.3725 39.5823 54.3098 39.1246 54.3367C40.1399 54.6917 40.6094 55.6194 41.3342 56.3562C41.4956 56.5202 41.7626 56.6545 41.6863 56.9379C41.2696 57.1556 40.8618 56.8185 40.4509 56.7141C40.0401 56.6097 39.509 56.6008 39.1246 56.4158C38.3734 56.0221 37.9743 55.1421 37.317 54.7543C36.6802 55.154 35.9348 55.2644 35.1983 55.5627C34.2094 55.9654 33.3819 56.6396 32.5045 57.266C32.1201 57.5434 31.5567 58.1042 31.2691 57.5374C31.3425 57.2391 31.6741 57.0631 31.9323 56.908C32.6776 56.4636 33.4934 55.8849 34.315 55.4732C35.568 54.8438 36.8181 54.7841 37.7571 53.8564C38.0506 53.5581 38.3117 53.1495 38.6844 52.7348C38.9779 52.4007 39.5237 52.0487 39.5647 51.6132C39.6058 51.1777 39.2126 50.7183 39.0336 50.2679C38.7284 49.5931 38.6661 48.8308 38.8575 48.1142C39.1487 47.4186 39.5169 46.7591 39.955 46.1484C40.0577 45.9843 40.178 45.6502 40.4421 45.7457C40.7356 45.8918 40.4773 46.2378 40.4421 46.3751C40.2926 46.7908 40.2316 47.2341 40.2631 47.6756C40.357 48.6093 41.0642 49.3968 40.7062 50.5005C40.7062 50.5393 40.6622 50.5453 40.6622 50.59C40.862 50.3705 41.039 50.1306 41.1904 49.8741C41.7773 48.8241 42.285 47.4102 42.8249 46.2378C42.9628 45.9395 43.1565 45.6681 43.2651 45.3877C43.4734 44.8627 43.4763 44.4093 43.7522 43.9946C44.3391 43.1325 45.5451 42.8641 46.5751 42.3361C46.7776 42.2406 47.0035 41.9901 47.2823 42.1213ZM43.761 45.2147C44.9582 44.7732 45.7505 43.9171 46.4518 42.9715C46.4518 42.9178 46.4518 42.8671 46.3638 42.882C45.2575 43.3951 43.8079 43.7948 43.7522 45.2147H43.761ZM43.5849 47.3237C43.1301 47.5295 42.8982 47.9769 42.5696 48.2663C43.224 48.0157 44.1659 48.0903 44.7763 47.7741C44.9367 47.6551 45.0843 47.5191 45.2164 47.3684C45.3309 47.2729 45.6801 47.1238 45.5246 47.0104C44.835 47.1984 44.1278 47.0761 43.5761 47.3237H43.5849ZM39.1686 48.8152C39.1686 49.7101 39.7555 50.5363 40.0078 51.2016C40.8676 50.0084 39.9462 48.5735 39.7878 47.2521C39.5589 47.7651 39.1686 48.1649 39.1598 48.8062L39.1686 48.8152ZM41.5543 50.7004C42.2938 51.121 43.3854 51.1031 43.761 50.4737C42.9599 50.4827 42.0473 50.3782 41.5455 50.6915L41.5543 50.7004ZM42.3466 53.749C42.9335 53.8743 43.4734 54.3188 44.1571 54.3784C44.9611 54.4471 45.5891 53.9638 46.1877 53.6595C44.9993 53.4209 43.2709 52.9705 42.3378 53.7401L42.3466 53.749ZM40.759 56.3532C40.2455 55.5597 39.4356 54.4351 37.9332 54.6469C38.6492 55.4255 39.327 56.2637 40.7502 56.3442L40.759 56.3532Z" fill="#AA3B77"/>
<path d="M34.7552 17.5981C34.7019 17.5985 34.6503 17.579 34.6103 17.5432C34.5702 17.5074 34.5445 17.458 34.538 17.4042C34.0069 13.401 31.7005 12.8014 31.6036 12.7776C31.559 12.7666 31.5189 12.7417 31.4889 12.7064C31.459 12.6711 31.4406 12.6271 31.4364 12.5807C31.4319 12.5336 31.4423 12.4862 31.4661 12.4455C31.4898 12.4047 31.5256 12.3727 31.5684 12.354C34.5028 11.0653 34.538 7.87949 34.541 7.74525C34.5406 7.71576 34.546 7.68649 34.5569 7.65917C34.5679 7.63184 34.584 7.60702 34.6046 7.58616C34.6251 7.56531 34.6495 7.54884 34.6764 7.53774C34.7033 7.52664 34.7321 7.52113 34.7611 7.52153C34.8174 7.52072 34.8717 7.5425 34.9124 7.58214C34.953 7.62177 34.9767 7.67609 34.9782 7.73332V7.73332C34.9782 11.2562 37.8129 12.2943 37.9332 12.3361C37.9747 12.3507 38.0111 12.3775 38.0377 12.413C38.0644 12.4486 38.08 12.4913 38.0828 12.5359C38.0845 12.5803 38.0734 12.6242 38.051 12.6623C38.0286 12.7004 37.9959 12.7311 37.9567 12.7507C35.0222 14.1945 34.9782 17.3326 34.9782 17.3624C34.9783 17.4193 34.9572 17.474 34.919 17.5156C34.8809 17.5571 34.8286 17.5824 34.7728 17.5862L34.7552 17.5981ZM32.1934 12.5359C32.8889 12.885 34.1272 13.8097 34.7288 16.1155C34.9163 15.3773 35.2464 14.6844 35.6998 14.077C36.1532 13.4697 36.7209 12.96 37.3698 12.5777C36.7269 12.2418 36.1601 11.7733 35.7054 11.2021C35.2506 10.631 34.918 9.96975 34.7288 9.26062C34.5407 9.9501 34.2198 10.5947 33.7845 11.157C33.3493 11.7193 32.8084 12.188 32.1934 12.5359V12.5359Z" fill="#AA3B77"/>
<path d="M27.3311 20.1008C27.2775 20.1013 27.2255 20.0819 27.185 20.0462C27.1445 20.0105 27.1182 19.961 27.111 19.9069C26.8176 17.613 25.503 17.267 25.4472 17.2521C25.4018 17.241 25.361 17.2158 25.3305 17.18C25.3 17.1441 25.2813 17.0994 25.277 17.0522C25.2728 17.0055 25.2833 16.9586 25.307 16.9184C25.3308 16.8782 25.3665 16.8467 25.4091 16.8285C27.0846 16.0917 27.111 14.2661 27.111 14.1915C27.111 14.1623 27.1167 14.1333 27.1278 14.1063C27.1389 14.0794 27.1552 14.0549 27.1757 14.0344C27.1961 14.0138 27.2204 13.9976 27.2471 13.9867C27.2738 13.9758 27.3023 13.9704 27.3311 13.9708C27.3878 13.9714 27.4421 13.994 27.4829 14.0339C27.5238 14.0738 27.5482 14.128 27.5512 14.1855V14.1855C27.531 14.7471 27.682 15.3012 27.9835 15.7722C28.285 16.2431 28.7223 16.6079 29.2356 16.8165C29.2771 16.8312 29.3135 16.8579 29.3401 16.8935C29.3667 16.929 29.3824 16.9718 29.3852 17.0164C29.3868 17.0608 29.3758 17.1047 29.3534 17.1428C29.331 17.1809 29.2982 17.2116 29.259 17.2312C28.7654 17.473 28.3458 17.8466 28.045 18.3122C27.7441 18.7777 27.5735 19.3176 27.5512 19.8741C27.5513 19.9307 27.53 19.9851 27.4918 20.0261C27.4536 20.0672 27.4013 20.0918 27.3458 20.0949L27.3311 20.1008ZM26.0047 17.0194C26.6415 17.4341 27.1078 18.0703 27.3164 18.8092C27.5649 18.0806 28.049 17.4591 28.6897 17.0462C28.0555 16.6746 27.5679 16.0904 27.3106 15.3937C27.066 16.0686 26.6063 16.6408 26.0047 17.0194V17.0194Z" fill="#AA3B77"/>
<path d="M52.8636 48.2782C52.8104 48.278 52.7592 48.2582 52.7193 48.2226C52.6794 48.1869 52.6535 48.1378 52.6464 48.0843C52.353 45.7874 51.0325 45.4414 50.9797 45.4265C50.9343 45.4164 50.8933 45.3919 50.8627 45.3565C50.8321 45.3211 50.8134 45.2766 50.8095 45.2296C50.8059 45.1826 50.8167 45.1356 50.8403 45.0951C50.864 45.0545 50.8993 45.0223 50.9415 45.0029C52.6171 44.2661 52.6435 42.4435 52.6435 42.3659C52.6435 42.3066 52.6667 42.2497 52.7079 42.2077C52.7492 42.1658 52.8052 42.1422 52.8636 42.1422C52.9219 42.1422 52.9779 42.1658 53.0192 42.2077C53.0605 42.2497 53.0836 42.3066 53.0836 42.3659C53.0635 42.9275 53.2145 43.4816 53.516 43.9526C53.8175 44.4235 54.2548 44.7883 54.768 44.9969C54.8097 45.0111 54.8462 45.0377 54.8729 45.0732C54.8996 45.1087 54.9152 45.1516 54.9177 45.1962C54.9202 45.2408 54.9096 45.2851 54.8871 45.3235C54.8646 45.3619 54.8313 45.3926 54.7915 45.4116C54.2979 45.6534 53.8782 46.027 53.5774 46.4925C53.2766 46.9581 53.1059 47.498 53.0836 48.0545C53.0837 48.111 53.0625 48.1654 53.0243 48.2065C52.986 48.2476 52.9338 48.2722 52.8782 48.2752L52.8636 48.2782ZM51.5372 45.1938C52.1741 45.6083 52.6405 46.2446 52.8489 46.9836C53.0974 46.255 53.5815 45.6335 54.2222 45.2206C53.5871 44.85 53.0993 44.2654 52.843 43.5681C52.5985 44.243 52.1388 44.8153 51.5372 45.1938V45.1938Z" fill="#AA3B77"/>
</g>
<defs>
<clipPath id="clip0_2_74">
<rect width="55" height="60" fill="white" transform="translate(14 2)"/>
</clipPath>
</defs>
</svg>
