<svg width="400" height="367" viewBox="0 0 400 367" fill="none" xmlns="http://www.w3.org/2000/svg">
<g opacity="0.6">
<path fill-rule="evenodd" clip-rule="evenodd" d="M229.809 109.906C217.946 99.5398 204.404 91.185 189.669 85.3464L270.657 169.595C265.044 154.267 257.013 140.18 247.048 127.839L229.809 109.906ZM170.276 79.3052C176.153 80.6595 181.891 82.3984 187.465 84.4951L271.475 171.888C273.491 177.686 275.162 183.655 276.464 189.769L170.276 79.3052ZM168.511 78.911C162.678 77.6494 156.713 76.7656 150.639 76.2853L279.367 210.197C278.906 203.879 278.056 197.673 276.843 191.605L168.511 78.911ZM264.851 286.852C265.936 284.615 266.968 282.344 267.944 280.042L83.4973 88.1691C81.2843 89.1843 79.1015 90.2574 76.9505 91.3865L264.851 286.852ZM76.0321 91.8731C73.0253 93.4806 70.0817 95.1982 67.2063 97.0206L259.435 296.989C261.186 293.998 262.838 290.935 264.383 287.808L76.0321 91.8731ZM258.907 297.882L66.3477 97.5692C63.2487 99.5653 60.2303 101.684 57.2986 103.918L252.804 307.295C254.952 304.246 256.988 301.106 258.907 297.882ZM252.215 308.125C250.459 310.582 248.63 312.98 246.731 315.315L49.5896 110.236C51.834 108.261 54.1389 106.358 56.5012 104.53L252.215 308.125ZM239.493 323.556C241.775 321.149 243.976 318.66 246.093 316.093L48.8412 110.899C46.3738 113.101 43.9811 115.392 41.6674 117.765L239.493 323.556ZM238.802 324.279C236.275 326.908 233.651 329.437 230.937 331.86L33.6846 126.665C36.0135 123.842 38.4446 121.113 40.972 118.484L238.802 324.279ZM222.485 338.838C225.125 336.825 227.694 334.719 230.189 332.523L33.047 127.444C30.9363 130.039 28.9114 132.712 26.9769 135.458L222.485 338.838ZM221.682 339.445C219.002 341.458 216.25 343.375 213.432 345.191L20.8701 144.876C22.6154 141.944 24.4581 139.081 26.3933 136.293L221.682 339.445ZM202.834 351.371C206.159 349.625 209.407 347.746 212.573 345.739L20.3427 145.769C18.4137 149.062 16.607 152.442 14.929 155.9L202.834 351.371ZM201.91 351.852C199.12 353.29 196.278 354.634 193.386 355.88L10.5949 165.728C11.7927 162.72 13.0846 159.763 14.4669 156.861L201.91 351.852ZM182.282 360.098C185.715 358.964 189.091 357.695 192.403 356.299L10.192 166.751C8.84933 170.197 7.62988 173.709 6.53935 177.28L182.282 360.098ZM181.226 360.442C177.291 361.707 173.281 362.796 169.205 363.7L3.0773 190.883C3.94644 186.643 4.99308 182.472 6.20873 178.378L181.226 360.442ZM159.844 365.431C162.609 365.02 165.348 364.525 168.059 363.949L2.83782 192.076C2.2836 194.895 1.80777 197.744 1.4128 200.621L159.844 365.431ZM158.627 365.607C154.462 366.187 150.239 366.576 145.967 366.766L0.129753 215.057C0.312454 210.612 0.686773 206.22 1.24434 201.887L158.627 365.607ZM139.887 366.901C141.475 366.901 143.057 366.873 144.632 366.819L0.0789548 216.446C0.0264572 218.084 0 219.73 0 221.381C0 225.139 0.136881 228.863 0.405738 232.548L129.153 366.479C132.696 366.759 136.275 366.901 139.887 366.901ZM127.644 366.351C122.767 365.911 117.962 365.211 113.242 364.264L2.53456 249.099C1.62424 244.189 0.951211 239.191 0.528382 234.118L127.644 366.351ZM111.511 363.905C106.407 362.811 101.405 361.428 96.5206 359.773L6.85207 266.494C5.26101 261.413 3.93142 256.21 2.87985 250.9L111.511 363.905ZM65.3329 344.534C74.3863 350.477 84.1406 355.37 94.4378 359.048L7.54885 268.661C11.0845 279.373 15.7881 289.52 21.5015 298.938L65.3329 344.534ZM61.3113 341.792L24.137 303.121C34.0732 318.318 46.7027 331.456 61.3113 341.792ZM272.559 267.639C271.311 271.514 269.91 275.316 268.365 279.038L84.4622 87.731C88.04 86.1232 91.6952 84.6663 95.4203 83.368L272.559 267.639ZM272.903 266.555C274.052 262.892 275.065 259.165 275.936 255.381L107.204 79.8553C103.566 80.7611 99.9832 81.8147 96.462 83.0098L272.903 266.555ZM278.186 243.385C277.653 247.041 276.989 250.652 276.199 254.213L108.326 79.5809C111.75 78.7597 115.221 78.0691 118.736 77.5146L278.186 243.385ZM278.363 242.128C279.014 237.388 279.445 232.574 279.645 227.698L133.815 75.9966C129.128 76.2048 124.5 76.653 119.944 77.3296L278.363 242.128ZM279.774 221.381C279.774 223.031 279.748 224.673 279.696 226.309L135.15 75.9438C136.723 75.8894 138.302 75.8619 139.887 75.8619C142.999 75.8619 146.086 75.9676 149.147 76.1757L279.473 211.749C279.673 214.933 279.774 218.145 279.774 221.381Z" fill="url(#paint0_linear_128_215)" fill-opacity="0.4"/>
<path fill-rule="evenodd" clip-rule="evenodd" d="M260.113 292.001C337.37 292.001 400 226.85 400 146.482C400 66.1136 337.37 0.96228 260.113 0.96228C182.855 0.96228 120.226 66.1136 120.226 146.482C120.226 226.85 182.855 292.001 260.113 292.001ZM260.113 248.345C314.193 248.345 358.034 202.739 358.034 146.482C358.034 90.2239 314.193 44.618 260.113 44.618C206.033 44.618 162.192 90.2239 162.192 146.482C162.192 202.739 206.033 248.345 260.113 248.345Z" fill="url(#paint1_linear_128_215)" fill-opacity="0.4"/>
</g>
<defs>
<linearGradient id="paint0_linear_128_215" x1="-169.867" y1="14.8918" x2="82.0111" y2="462.532" gradientUnits="userSpaceOnUse">
<stop offset="0.232292" stop-color="#A02E81"/>
<stop offset="0.607271" stop-color="#D5B06B"/>
<stop offset="0.926051" stop-color="#3F3F42" stop-opacity="0.99"/>
</linearGradient>
<linearGradient id="paint1_linear_128_215" x1="-26.6558" y1="-2.34497" x2="180.247" y2="377.894" gradientUnits="userSpaceOnUse">
<stop offset="0.232292" stop-color="#A02E81"/>
<stop offset="0.607271" stop-color="#D5B06B"/>
<stop offset="0.926051" stop-color="#3F3F42" stop-opacity="0.99"/>
</linearGradient>
</defs>
</svg>
