<svg width="253" height="253" viewBox="0 0 253 253" fill="none" xmlns="http://www.w3.org/2000/svg">
<path d="M52.1144 182.954C52.2318 183.101 52.3752 183.225 52.5376 183.32C52.6808 183.324 52.8237 183.305 52.9608 183.263C53.4003 183.141 54.0025 182.97 54.7593 182.726L59.0156 181.375L59.4632 181.912L56.9159 186.852C56.7216 187.195 56.5582 187.554 56.4277 187.926C56.4795 188.129 56.58 188.316 56.7206 188.472L56.387 188.748C56.0696 188.333 55.7685 187.935 55.4755 187.601C55.1825 187.267 54.7756 186.787 54.4419 186.421L54.7756 186.136C54.9108 186.309 55.0666 186.465 55.2395 186.6C55.2639 186.619 55.2939 186.629 55.3249 186.629C55.3559 186.629 55.386 186.619 55.4104 186.6C55.5398 186.433 55.6516 186.253 55.7441 186.063L56.1591 185.306L55.3453 184.289L54.5966 183.41L54.0432 183.589C53.8967 183.638 53.6851 183.727 53.4084 183.849C53.3532 183.872 53.3013 183.902 53.2538 183.939C53.2293 183.959 53.211 183.986 53.2009 184.016C53.1909 184.046 53.1894 184.079 53.1968 184.11C53.3019 184.31 53.4244 184.5 53.563 184.679L53.2294 184.956C53.0422 184.704 52.8062 184.394 52.5051 184.044C52.2039 183.695 51.9924 183.442 51.8052 183.231L52.1144 182.954ZM57.6728 182.392L55.1418 183.206C55.3209 183.442 55.5243 183.695 55.7441 183.963C55.9638 184.232 56.2161 184.516 56.4439 184.777L57.6728 182.392Z" fill="white"/>
<path d="M60.7165 193.167L60.8792 192.988C61.0627 193.044 61.2505 193.085 61.4408 193.11C62.0593 192.508 62.6859 191.857 63.3126 191.173C63.8171 190.636 64.281 190.116 64.7123 189.627C64.9047 189.44 65.0691 189.226 65.2006 188.992C65.2107 188.972 65.2159 188.95 65.2159 188.927C65.2159 188.905 65.2107 188.882 65.2006 188.862C65.0668 188.671 64.9171 188.491 64.753 188.325L65.0216 188.032C65.461 188.463 65.8354 188.846 66.2586 189.212C66.6818 189.578 66.991 189.88 67.3328 190.172L67.0643 190.465C66.8802 190.291 66.6685 190.148 66.4376 190.042C66.3693 190.04 66.3027 190.063 66.2504 190.107C66.1772 190.164 65.8191 190.531 65.1762 191.214L63.5486 192.899C63.2474 193.224 62.9138 193.599 62.5476 194.038C62.8324 194.331 63.0521 194.551 63.1986 194.681C63.5747 195.034 63.9897 195.342 64.4356 195.601C64.7391 195.422 65.0325 195.226 65.3145 195.015L65.6238 195.3C65.2576 195.593 64.81 195.975 64.3136 196.439C64.0748 196.254 63.8632 196.075 63.6788 195.902L62.4255 194.714L61.864 194.185C61.6035 193.94 61.221 193.599 60.7165 193.167Z" fill="white"/>
<path d="M69.3185 200.573L69.4732 200.37C69.6477 200.402 69.8247 200.418 70.0021 200.418C70.3439 200.052 70.9787 199.23 71.9146 197.936C72.5413 197.057 72.9563 196.471 73.1435 196.17C73.2274 196.076 73.2738 195.955 73.2737 195.829C73.2737 195.755 73.0865 195.584 72.7691 195.308L73.0051 194.982C73.6019 195.443 74.0739 195.801 74.4212 196.056L76.5859 197.529C76.7919 197.673 76.9876 197.831 77.1719 198.001V198.058C76.8314 198.402 76.5159 198.769 76.2279 199.157L75.9267 198.937C76.0747 198.739 76.2029 198.526 76.3092 198.303C76.3092 198.303 76.3092 198.197 76.1872 198.107C75.9071 197.804 75.5961 197.532 75.2594 197.293L74.4456 196.773C73.8434 197.586 73.3632 198.164 73.0214 198.636C73.2818 198.853 73.5341 199.049 73.7783 199.222C73.984 199.39 74.2078 199.535 74.4456 199.653C74.4753 199.661 74.5062 199.66 74.5359 199.653C74.5655 199.646 74.5932 199.632 74.6165 199.613C74.7647 199.473 74.9008 199.32 75.0234 199.157L75.3571 199.401L74.7223 200.215L74.1119 201.102L73.7864 200.866C73.9277 200.666 74.0451 200.45 74.1363 200.223C74.1393 200.197 74.1357 200.171 74.1257 200.147C74.1157 200.122 74.0998 200.101 74.0794 200.085C73.8272 199.838 73.555 199.612 73.2656 199.409C73.1191 199.312 72.9482 199.198 72.7447 199.084C72.6389 199.214 72.5413 199.352 72.4355 199.491C71.9065 200.223 71.5158 200.801 71.2554 201.216L72.0123 201.778C72.4115 202.072 72.8272 202.344 73.2574 202.591C73.4934 202.396 73.7538 202.168 74.0305 201.908L74.3561 202.144C73.9801 202.538 73.6268 202.954 73.2981 203.389C73.0458 203.242 72.818 203.088 72.5982 202.933L71.7844 202.307L70.7183 201.493C70.2788 201.216 69.8231 200.899 69.3185 200.573Z" fill="white"/>
<path d="M78.5147 206.783L78.7019 206.424C78.9006 206.538 79.1143 206.623 79.3366 206.677C79.391 206.677 79.4434 206.657 79.4831 206.62C79.6565 206.41 79.804 206.181 79.9226 205.936C80.2969 205.277 80.5736 204.772 80.7364 204.431L81.6723 202.648C81.8319 202.392 81.9629 202.119 82.0629 201.834C82.0801 201.793 82.0801 201.746 82.0629 201.704C81.8874 201.533 81.6904 201.385 81.477 201.265L81.6642 200.915L82.6245 201.452L83.4383 201.859C83.6499 203.031 83.9022 204.3 84.2033 205.716C84.3986 206.652 84.5858 207.442 84.7485 208.076L85.6437 206.4C85.9774 205.773 86.2622 205.22 86.4575 204.772C86.5509 204.605 86.6168 204.424 86.6529 204.235C86.6542 204.213 86.6505 204.19 86.6421 204.169C86.6336 204.148 86.6206 204.129 86.604 204.113C86.4235 203.979 86.2361 203.854 86.0425 203.739L86.2297 203.389C86.5308 203.568 86.8319 203.731 87.133 203.893C87.4341 204.056 87.9468 204.309 88.2724 204.471L88.077 204.829C87.8875 204.731 87.6884 204.652 87.483 204.593C87.4427 204.585 87.4011 204.585 87.3609 204.593C87.322 204.612 87.2863 204.637 87.2551 204.667C87.1165 204.867 86.9914 205.076 86.8807 205.293L85.9611 206.97L85.0496 208.662C84.8055 209.118 84.5695 209.574 84.3498 210.038H84.2602L83.6092 209.525C83.3081 208.345 82.9744 206.872 82.6 205.122C82.4129 204.235 82.2745 203.495 82.1769 202.917L81.3061 204.545C81.0619 204.992 80.7852 205.537 80.4923 206.172C80.3369 206.428 80.2113 206.701 80.1179 206.986C80.1106 207.018 80.1106 207.051 80.1179 207.084C80.2875 207.244 80.4761 207.384 80.6794 207.499L80.4923 207.849C80.0528 207.588 79.7354 207.401 79.5401 207.303C79.3448 207.206 79.0844 207.043 78.5147 206.783Z" fill="white"/>
<path d="M90.8522 212.365C91.0254 212.435 91.2106 212.471 91.3974 212.471C91.5247 212.407 91.6381 212.319 91.7311 212.211C92.0566 211.885 92.4879 211.397 93.0169 210.843L96.0118 207.531L96.671 207.767L96.9883 213.317C96.9913 213.711 97.0322 214.104 97.1104 214.489C97.2573 214.64 97.439 214.752 97.6394 214.815L97.4929 215.222C97.0128 215.026 96.557 214.847 96.1176 214.693C95.6781 214.538 95.1084 214.335 94.6364 214.188L94.7829 213.781C94.9875 213.86 95.2005 213.914 95.4177 213.944C95.449 213.944 95.4794 213.933 95.5043 213.914C95.5292 213.895 95.5473 213.868 95.556 213.838C95.5749 213.627 95.5749 213.415 95.556 213.204V212.39C95.1817 212.243 94.7422 212.089 94.3109 211.926C93.8796 211.763 93.554 211.657 93.2204 211.543L92.846 211.975C92.7402 212.097 92.6019 212.276 92.4228 212.52C92.3879 212.567 92.3605 212.619 92.3414 212.675C92.3229 212.701 92.3129 212.732 92.3129 212.764C92.3129 212.796 92.3229 212.827 92.3414 212.854C92.5312 212.977 92.733 213.08 92.9437 213.163L92.789 213.57C92.5042 213.448 92.1461 213.301 91.7067 213.147C91.3787 213.021 91.0446 212.913 90.7057 212.821L90.8522 212.365ZM95.3607 209.11L93.5866 211.071C93.8551 211.185 94.1563 211.299 94.4899 211.421C94.8236 211.543 95.1654 211.657 95.4909 211.763L95.3607 209.11Z" fill="white"/>
<path d="M110.669 218.371L110.717 217.981C110.947 218.013 111.18 218.013 111.409 217.981C111.457 217.957 111.496 217.92 111.523 217.875C111.609 217.611 111.661 217.338 111.678 217.061C111.792 216.312 111.873 215.743 111.914 215.352L112.15 213.35C112.204 213.044 112.223 212.733 112.207 212.422C112.198 212.376 112.172 212.335 112.133 212.308C111.908 212.217 111.673 212.152 111.434 212.113V211.714L112.532 211.877C112.793 211.877 113.094 211.934 113.427 211.958C114.046 212.976 114.746 214.091 115.535 215.287C116.056 216.101 116.512 216.752 116.894 217.281L117.122 215.401C117.212 214.693 117.277 214.074 117.326 213.562C117.359 213.37 117.359 213.175 117.326 212.984C117.317 212.963 117.304 212.944 117.287 212.928C117.27 212.913 117.25 212.901 117.228 212.894C117.015 212.83 116.797 212.781 116.577 212.748L116.626 212.349L117.643 212.496C118.115 212.552 118.538 212.593 118.913 212.626L118.864 213.024C118.65 212.997 118.434 212.997 118.221 213.024C118.182 213.032 118.146 213.049 118.115 213.073C118.087 213.104 118.065 213.14 118.05 213.179C117.982 213.415 117.938 213.658 117.92 213.903L117.667 215.791L117.431 217.696C117.366 218.209 117.318 218.721 117.277 219.234L117.204 219.299C116.829 219.177 116.569 219.104 116.39 219.063C115.69 218.065 114.849 216.817 113.867 215.319C113.371 214.554 112.972 213.92 112.671 213.407L112.443 215.246C112.386 215.751 112.321 216.353 112.247 217.061C112.217 217.364 112.217 217.669 112.247 217.973C112.252 217.991 112.259 218.009 112.271 218.024C112.282 218.039 112.296 218.052 112.313 218.062C112.526 218.149 112.751 218.206 112.98 218.233L112.931 218.632C112.426 218.55 112.06 218.493 111.841 218.469L110.669 218.371Z" fill="white"/>
<path d="M124.52 219.543V219.283C124.682 219.213 124.836 219.123 124.976 219.014C125.045 217.971 125.061 216.926 125.024 215.881C125.024 214.799 125.024 214.082 124.959 213.733C124.959 213.537 124.91 213.423 124.853 213.374C124.627 213.291 124.387 213.252 124.145 213.261V212.862C124.894 212.862 125.488 212.862 125.92 212.862L128.548 212.78C128.797 212.763 129.048 212.763 129.297 212.78V212.829C129.222 213.292 129.179 213.76 129.167 214.229H128.792C128.794 213.978 128.769 213.727 128.719 213.48C128.657 213.434 128.584 213.406 128.508 213.399C128.107 213.332 127.7 213.311 127.295 213.334C127.026 213.334 126.709 213.334 126.359 213.374C126.359 214.359 126.359 215.14 126.359 215.726C126.693 215.726 127.018 215.726 127.319 215.726C127.592 215.737 127.865 215.718 128.133 215.669C128.19 215.669 128.223 215.604 128.247 215.531C128.281 215.332 128.3 215.131 128.304 214.929H128.711C128.711 215.466 128.711 215.824 128.711 215.979V217.061H128.296C128.3 216.819 128.268 216.577 128.198 216.345C128.198 216.304 128.141 216.28 128.068 216.264C127.712 216.22 127.352 216.206 126.994 216.223L126.383 216.272C126.383 216.434 126.383 216.605 126.383 216.784C126.383 217.688 126.383 218.412 126.465 218.876H127.409C127.902 218.872 128.394 218.837 128.882 218.77C128.955 218.477 129.028 218.143 129.093 217.769H129.492C129.427 218.331 129.395 218.876 129.386 219.397C129.116 219.428 128.845 219.444 128.573 219.446H126.213C125.667 219.502 125.106 219.503 124.52 219.543Z" fill="white"/>
<path d="M135.563 219.079L135.506 218.681C135.734 218.66 135.957 218.603 136.166 218.51C136.188 218.493 136.206 218.473 136.22 218.449C136.234 218.425 136.243 218.399 136.247 218.371C136.265 218.099 136.248 217.826 136.198 217.557C136.106 216.798 136.033 216.228 135.978 215.848L135.677 213.855C135.649 213.545 135.589 213.24 135.498 212.943C135.471 212.905 135.435 212.874 135.392 212.854C135.15 212.819 134.903 212.819 134.66 212.854L134.603 212.455C135.099 212.406 135.466 212.357 135.702 212.325L136.589 212.17C137.451 212.989 138.417 213.876 139.486 214.831C140.202 215.466 140.821 215.995 141.325 216.402L141.057 214.53C140.951 213.822 140.861 213.212 140.764 212.699C140.743 212.507 140.691 212.32 140.609 212.146C140.596 212.127 140.579 212.111 140.56 212.1C140.54 212.088 140.518 212.082 140.495 212.08C140.273 212.069 140.05 212.069 139.828 212.08L139.771 211.69L140.796 211.56C141.26 211.495 141.675 211.429 142.049 211.356L142.106 211.755C141.896 211.792 141.689 211.847 141.488 211.918C141.451 211.936 141.42 211.964 141.398 211.999C141.389 212.039 141.389 212.081 141.398 212.121C141.396 212.367 141.418 212.612 141.463 212.854L141.716 214.742L141.984 216.646C142.058 217.151 142.147 217.663 142.237 218.168L142.188 218.241C141.797 218.241 141.52 218.241 141.374 218.241C140.441 217.46 139.301 216.475 137.956 215.287C137.272 214.685 136.727 214.172 136.328 213.757L136.589 215.596C136.662 216.093 136.76 216.695 136.874 217.395C136.911 217.696 136.976 217.993 137.069 218.282C137.088 218.314 137.116 218.34 137.15 218.355C137.383 218.385 137.618 218.385 137.85 218.355L137.907 218.754C137.397 218.803 137.031 218.843 136.808 218.876L135.563 219.079Z" fill="white"/>
<path d="M148.804 216.247C148.985 216.196 149.156 216.113 149.309 216.003C149.373 215.873 149.412 215.732 149.423 215.588C149.496 215.14 149.569 214.522 149.651 213.733L150.098 209.289L150.765 209.086L154.289 213.391C154.531 213.707 154.804 213.999 155.103 214.261C155.308 214.297 155.519 214.278 155.713 214.205L155.836 214.628C155.331 214.75 154.859 214.88 154.419 215.01C153.98 215.14 153.394 215.319 152.922 215.482L152.8 215.067C153.011 215.007 153.216 214.925 153.41 214.823C153.433 214.804 153.45 214.778 153.459 214.749C153.468 214.72 153.468 214.689 153.459 214.66C153.355 214.475 153.232 214.3 153.093 214.139L152.564 213.464C152.181 213.562 151.75 213.684 151.294 213.822L150.188 214.164L150.139 214.742C150.139 214.896 150.139 215.124 150.139 215.425C150.13 215.485 150.13 215.545 150.139 215.604C150.147 215.634 150.163 215.661 150.186 215.681C150.21 215.701 150.238 215.714 150.269 215.718C150.494 215.711 150.718 215.678 150.936 215.621L151.067 216.036C150.757 216.101 150.383 216.198 149.935 216.329C149.488 216.459 149.178 216.565 148.934 216.662L148.804 216.247ZM150.497 210.925L150.228 213.562L151.164 213.309C151.514 213.204 151.848 213.098 152.173 212.984L150.497 210.925Z" fill="white"/>
<path d="M161.369 212.569L161.199 212.203C161.42 212.105 161.628 211.979 161.817 211.828C161.847 211.747 161.847 211.657 161.817 211.576C161.668 211.16 161.497 210.753 161.304 210.355L160.214 207.987C160.025 207.545 159.807 207.115 159.563 206.701C159.53 206.667 159.487 206.645 159.441 206.636C159.196 206.676 158.958 206.75 158.733 206.856L158.562 206.49C159.156 206.245 159.612 206.042 159.953 205.887C160.491 205.643 160.971 205.407 161.41 205.179L161.573 205.546C161.364 205.649 161.165 205.771 160.979 205.912C160.968 205.949 160.968 205.989 160.979 206.026C161.004 206.213 161.062 206.395 161.15 206.563C161.321 206.986 161.508 207.377 161.703 207.832L161.874 208.19C162.175 208.068 162.688 207.857 163.306 207.556C163.925 207.255 164.316 207.092 164.576 206.945C164.153 206.009 163.852 205.391 163.689 205.09C163.599 204.935 163.526 204.846 163.461 204.829C163.207 204.842 162.96 204.911 162.737 205.033L162.566 204.667C163.298 204.357 163.787 204.146 164.039 204.024C164.478 203.828 164.934 203.6 165.406 203.364L165.577 203.723C165.357 203.821 165.151 203.95 164.967 204.105C164.941 204.138 164.927 204.178 164.926 204.219C164.988 204.472 165.078 204.718 165.194 204.951C165.463 205.586 165.691 206.099 165.862 206.49L166.798 208.451C166.911 208.709 167.041 208.959 167.188 209.2C167.229 209.249 167.287 209.281 167.351 209.289C167.587 209.246 167.816 209.175 168.035 209.077L168.206 209.436L167.717 209.647C167.351 209.802 167.066 209.924 166.863 210.022C166.431 210.217 165.935 210.453 165.365 210.746L165.194 210.38C165.422 210.292 165.63 210.159 165.805 209.989C165.832 209.85 165.809 209.706 165.74 209.582C165.609 209.248 165.3 208.54 164.82 207.466L163.738 207.963C163.119 208.247 162.582 208.5 162.11 208.728L162.24 209.012C162.59 209.769 162.859 210.331 163.054 210.705C163.184 210.949 163.29 211.079 163.363 211.096C163.609 211.07 163.849 211.001 164.071 210.892L164.234 211.259L163.713 211.486C163.388 211.617 163.095 211.747 162.842 211.861L161.369 212.569Z" fill="white"/>
<path d="M176.686 204.536C175.899 205.129 174.91 205.387 173.935 205.253C173.489 205.153 173.068 204.963 172.7 204.692C172.331 204.422 172.023 204.078 171.794 203.682C171.417 203.141 171.192 202.508 171.143 201.851C171.114 201.264 171.255 200.682 171.55 200.174C171.928 199.568 172.444 199.061 173.056 198.693C173.615 198.299 174.259 198.043 174.936 197.944C175.494 197.876 176.059 197.973 176.563 198.221C177.099 198.508 177.548 198.932 177.866 199.45C178.242 200.005 178.472 200.646 178.533 201.314C178.578 201.926 178.439 202.538 178.134 203.071C177.783 203.674 177.284 204.178 176.686 204.536V204.536ZM176.555 204.007C176.806 203.857 177.017 203.649 177.173 203.402C177.328 203.155 177.423 202.874 177.451 202.583C177.463 201.819 177.216 201.073 176.751 200.467C176.354 199.727 175.708 199.15 174.928 198.84C174.635 198.756 174.326 198.744 174.028 198.804C173.729 198.863 173.449 198.992 173.211 199.181C172.95 199.332 172.727 199.54 172.559 199.789C172.391 200.039 172.283 200.324 172.242 200.622C172.224 201.368 172.462 202.098 172.918 202.689C173.226 203.194 173.636 203.629 174.122 203.967C174.48 204.223 174.903 204.373 175.343 204.398C175.773 204.395 176.193 204.271 176.555 204.04V204.007Z" fill="white"/>
<path d="M180.356 194.095L180.095 193.794C180.567 193.42 180.991 193.062 181.365 192.728C181.739 192.394 182.057 192.109 182.439 191.743L182.708 192.044C182.542 192.192 182.395 192.358 182.268 192.541C182.248 192.569 182.238 192.603 182.238 192.638C182.238 192.673 182.248 192.707 182.268 192.736C182.598 192.959 182.946 193.153 183.31 193.314L186.492 194.941L185.556 192.231C185.384 191.631 185.144 191.052 184.84 190.506C184.818 190.479 184.788 190.46 184.754 190.451C184.721 190.442 184.685 190.444 184.653 190.457C184.448 190.572 184.255 190.706 184.075 190.856L183.815 190.555C184.27 190.189 184.571 189.936 184.718 189.806L185.532 189.049L185.792 189.351C185.649 189.478 185.533 189.633 185.45 189.806C185.504 190.214 185.608 190.613 185.76 190.994L186.964 194.6C187.142 195.169 187.348 195.728 187.583 196.276L187.062 196.732L183.123 194.803C182.228 194.364 181.609 194.079 181.275 193.932C181.151 193.862 181.011 193.823 180.869 193.818C180.685 193.884 180.512 193.977 180.356 194.095Z" fill="white"/>
<path d="M193.89 189.473C194.014 189.331 194.114 189.168 194.183 188.992C194.164 188.85 194.12 188.712 194.052 188.586C193.865 188.17 193.597 187.609 193.239 186.901L191.204 182.921L191.668 182.384L196.95 184.101C197.321 184.239 197.706 184.34 198.097 184.403C198.178 184.403 198.341 184.272 198.585 184.028L198.911 184.313C198.553 184.687 198.227 185.054 197.926 185.404C197.625 185.753 197.234 186.217 196.925 186.608L196.6 186.331C196.741 186.163 196.869 185.983 196.982 185.794C196.991 185.764 196.99 185.733 196.98 185.703C196.97 185.674 196.951 185.649 196.925 185.631C196.74 185.527 196.544 185.445 196.339 185.387L195.525 185.102C195.257 185.395 194.964 185.729 194.646 186.095L193.914 186.95L194.183 187.454C194.291 187.656 194.411 187.852 194.541 188.04C194.57 188.093 194.609 188.14 194.655 188.179C194.68 188.195 194.71 188.204 194.74 188.204C194.77 188.204 194.8 188.195 194.826 188.179C195.01 188.046 195.182 187.896 195.338 187.731L195.664 188.008C195.444 188.236 195.184 188.52 194.85 188.87C194.516 189.22 194.345 189.481 194.191 189.684L193.89 189.473ZM192.425 184.077L193.629 186.445C193.833 186.234 194.044 185.989 194.28 185.729C194.516 185.469 194.744 185.176 194.956 184.915L192.425 184.077Z" fill="white"/>
<path d="M91.6741 68.4335V76.6693C91.6741 78.5492 91.6741 79.8595 91.7799 80.6C91.7823 80.9669 91.8958 81.3244 92.1054 81.6255C92.457 81.8082 92.8486 81.9006 93.2448 81.894L94.0098 81.9591V82.7078C93.1471 82.6509 92.3821 82.6264 91.6578 82.6264C91.1777 82.6264 90.0302 82.6265 88.313 82.7078V81.9673H89.1757C89.5272 82.0092 89.8826 81.9318 90.1848 81.7475C90.3771 81.5197 90.4836 81.2318 90.4859 80.9337C90.5755 80.0629 90.6161 78.8747 90.6161 77.3692V71.3876C90.6161 70.2727 90.6161 69.174 90.6161 68.0835C90.628 67.7586 90.5639 67.4353 90.429 67.1395C90.3075 66.9544 90.1462 66.7987 89.957 66.6838C89.6693 66.5253 89.3386 66.4626 89.0129 66.5047H88.2724V65.7479C89.2815 65.8048 90.0546 65.8374 90.5836 65.8374C91.1126 65.8374 91.788 65.8374 92.4717 65.7479C93.2583 66.7136 93.9989 67.6495 94.6934 68.5555C95.3933 69.467 96.1094 70.3866 96.8581 71.3062L100.927 76.3112C102.403 78.1125 103.464 79.3603 104.109 80.0548V72.4049C104.178 70.6534 104.121 68.8991 103.938 67.1558C103.824 66.8547 103.361 66.6675 102.563 66.5861L101.668 66.5047V65.7479C102.945 65.8048 103.938 65.8374 104.646 65.8374C105.354 65.8374 106.339 65.8374 107.511 65.7479V66.5047H106.6C105.859 66.5047 105.436 66.7489 105.322 67.2453C105.249 67.5708 105.216 69.3042 105.216 72.4619V77.8412C105.216 79.2817 105.281 81.0151 105.403 83.0252C104.76 82.9505 104.123 82.8253 103.499 82.6509C103.305 82.5659 103.132 82.4379 102.994 82.2765C102.115 81.2999 101.19 80.2148 100.219 79.0212L91.6741 68.4335Z" fill="white"/>
<path d="M125.423 76.9867H118.522L117.708 78.9073C117.336 79.6472 117.063 80.4323 116.894 81.243C116.888 81.3149 116.898 81.3874 116.923 81.455C116.948 81.5226 116.989 81.5837 117.041 81.6336C117.274 81.7564 117.534 81.8206 117.798 81.8208L118.961 81.9673V82.716C118.196 82.659 117.334 82.6346 116.382 82.6346C115.242 82.6346 114.233 82.6346 113.37 82.716V81.9673H113.729C114.095 81.9858 114.461 81.9276 114.803 81.7964C115.037 81.6017 115.217 81.3492 115.324 81.0639C115.866 79.9191 116.441 78.6821 117.049 77.3529L120.304 69.9309C121.183 67.9533 121.777 66.5291 122.095 65.6339H122.908L128.947 79.6641C129.177 80.2577 129.449 80.8342 129.761 81.3894C129.877 81.5653 130.037 81.7082 130.225 81.8045C130.606 81.928 131.004 81.9885 131.405 81.9835V82.7322C130.371 82.6753 129.386 82.6509 128.451 82.6509C127.515 82.6509 126.416 82.6509 124.959 82.7322V81.9673L126.139 81.894C126.395 81.8965 126.648 81.8524 126.888 81.7638C126.943 81.7274 126.988 81.6778 127.02 81.6196C127.051 81.5613 127.067 81.4962 127.067 81.4301C126.998 81.0415 126.878 80.6638 126.709 80.3071L125.423 76.9867ZM118.961 76.0101H124.967L121.964 68.8485L118.961 76.0101Z" fill="white"/>
<path d="M137.508 81.9673H138.265C138.998 81.9673 139.445 81.7882 139.592 81.4301C139.82 79.7258 139.893 78.0044 139.811 76.2868V72.2177C139.883 70.4631 139.82 68.7056 139.624 66.9605C139.494 66.6349 139.112 66.4722 138.477 66.4722H137.508V65.7153C138.835 65.7723 140.137 65.8048 141.431 65.8048C142.505 65.8048 143.482 65.8048 144.353 65.7153V66.5047H143.433C143.065 66.4561 142.691 66.5274 142.367 66.7082C142.171 67.0124 142.082 67.3732 142.115 67.7336C142.115 68.5474 142.049 70.0937 142.049 72.2747V76.3845C141.973 78.0908 142.041 79.8004 142.253 81.4952C142.391 81.8045 142.831 81.9673 143.563 81.9673H144.377V82.716C143.4 82.659 142.334 82.6346 141.179 82.6346C139.836 82.6346 138.615 82.6346 137.533 82.716L137.508 81.9673Z" fill="white"/>
<path d="M155.184 81.5359C155.998 81.5359 156.723 81.601 157.463 81.601C158.961 81.601 160.124 81.601 160.971 81.479C161.586 81.4087 162.195 81.2945 162.794 81.1372L163.51 78.3295H164.283C164.08 79.8351 163.925 81.2348 163.819 82.5369C162.846 82.6748 161.864 82.7346 160.881 82.716L155.184 82.6265C154.419 82.6265 153.231 82.6265 151.62 82.7567V82.1219C152.255 81.8452 152.629 81.5441 152.743 81.2267C152.925 79.9767 152.985 78.7121 152.922 77.4506V70.8912C152.991 69.5593 152.931 68.2239 152.743 66.9035C152.629 66.6349 152.312 66.4966 151.775 66.4966H150.472V65.7397C152.369 65.7967 153.622 65.8292 154.24 65.8292C155.054 65.8292 156.194 65.8293 157.602 65.7397V66.5047H156.153C155.73 66.5047 155.461 66.6268 155.339 66.8628C155.166 67.862 155.109 68.8779 155.168 69.8902V77.4831L155.209 80.8442L155.184 81.5359Z" fill="white"/>
<path d="M59.8945 106.284H53.0422L52.2284 108.205C51.8608 108.946 51.5874 109.731 51.4145 110.54C51.4078 110.613 51.4182 110.686 51.4451 110.754C51.472 110.822 51.5145 110.883 51.5692 110.931C51.8026 111.054 52.0623 111.118 52.326 111.118L53.4654 111.257V112.005C52.7004 111.948 51.8377 111.924 50.8937 111.924C49.7462 111.924 48.7452 111.924 47.8744 112.005V111.265H48.2325C48.6012 111.283 48.9697 111.225 49.3149 111.094C49.5489 110.901 49.7261 110.647 49.8276 110.361C50.3973 109.217 50.9751 107.98 51.561 106.65L54.8163 99.2283C55.6871 97.2263 56.2974 95.8022 56.5986 94.907H57.4124L63.4428 108.937C63.6717 109.531 63.9437 110.108 64.2566 110.662C64.369 110.842 64.5298 110.986 64.7205 111.078C65.1012 111.202 65.5 111.262 65.9005 111.257V112.005C64.867 111.948 63.8822 111.924 62.9463 111.924C62.0104 111.924 60.9037 111.924 59.4469 112.005V111.265L60.627 111.191C60.885 111.194 61.1413 111.149 61.3838 111.061C61.4375 111.023 61.4817 110.973 61.5127 110.916C61.5438 110.858 61.561 110.793 61.5629 110.728C61.4795 110.35 61.3511 109.984 61.1804 109.637L59.8945 106.284ZM53.4409 105.308H59.4469L56.4521 98.1459L53.4409 105.308Z" fill="white"/>
<path d="M86.5878 99.3423L86.4982 97.2182C85.1205 96.2968 83.5007 95.804 81.8432 95.8022C80.8966 95.758 79.951 95.9085 79.0649 96.2444C78.1788 96.5804 77.3711 97.0946 76.6917 97.7553C76.0324 98.4517 75.5209 99.2743 75.1881 100.174C74.8552 101.073 74.7078 102.03 74.7548 102.988C74.7326 104.406 75.0714 105.806 75.7396 107.057C76.3844 108.25 77.3517 109.237 78.531 109.906C79.6892 110.591 81.01 110.954 82.3559 110.955C83.4191 110.956 84.4787 110.833 85.5135 110.589C86.3671 110.37 87.1672 109.979 87.8654 109.442L88.1177 109.686C87.9468 110.044 87.7922 110.418 87.6539 110.793C86.7563 111.236 85.8154 111.585 84.8462 111.834C83.9148 112.068 82.9581 112.185 81.9978 112.184C80.215 112.224 78.4486 111.836 76.8464 111.053C75.4326 110.358 74.2467 109.274 73.4283 107.928C72.6245 106.56 72.2134 104.998 72.2401 103.411C72.214 101.828 72.6312 100.269 73.4446 98.9109C74.2601 97.5806 75.441 96.5128 76.8464 95.8347C78.5398 95.0606 80.389 94.6874 82.2501 94.7442C83.5796 94.7747 84.9012 94.9576 86.189 95.2894C86.9296 95.4685 87.5399 95.5987 88.0119 95.6882C87.5962 96.8419 87.3841 98.059 87.3853 99.2853L86.5878 99.3423Z" fill="white"/>
<path d="M105.94 106.284H99.0636L98.2498 108.205C97.8781 108.945 97.6045 109.73 97.4359 110.54C97.4294 110.612 97.4392 110.685 97.4645 110.752C97.4899 110.82 97.5302 110.881 97.5824 110.931C97.8158 111.054 98.0756 111.118 98.3393 111.118L99.4868 111.257V112.005C98.7218 111.948 97.8591 111.924 96.907 111.924C95.7676 111.924 94.7585 111.924 93.8958 112.005V111.265H94.2539C94.62 111.283 94.9859 111.225 95.3282 111.094C95.5626 110.899 95.7421 110.647 95.849 110.361C96.3915 109.217 96.9666 107.98 97.5743 106.65L100.83 99.2283C101.749 97.2263 102.351 95.8022 102.685 94.907H103.499L109.537 108.937C109.768 109.531 110.04 110.107 110.351 110.662C110.468 110.838 110.627 110.981 110.815 111.078C111.196 111.201 111.595 111.262 111.995 111.257V112.005C110.962 111.948 109.977 111.924 109.041 111.924C108.105 111.924 107.006 111.924 105.55 112.005V111.265L106.73 111.191C106.985 111.194 107.239 111.15 107.478 111.061C107.534 111.025 107.579 110.975 107.61 110.917C107.641 110.859 107.658 110.794 107.658 110.728C107.589 110.339 107.468 109.961 107.299 109.605L105.94 106.284ZM99.4868 105.308H105.493L102.49 98.1459L99.4868 105.308Z" fill="white"/>
<path d="M119.971 110.809C120.101 109.583 120.166 107.429 120.166 104.347V100.897C120.166 99.4806 120.117 98.2599 120.019 97.2345C120.021 96.8756 119.946 96.5205 119.8 96.1928C119.493 96.0377 119.158 95.949 118.815 95.9324L117.863 95.8022V95.0453C119.173 95.0453 120.052 95.1104 120.508 95.1104H123.714L126.326 95.0616C127.419 95.0484 128.511 95.1521 129.582 95.3708C130.672 95.5833 131.699 96.0427 132.585 96.7136C133.469 97.3697 134.174 98.2371 134.636 99.2365C135.123 100.343 135.362 101.543 135.335 102.752C135.372 103.991 135.15 105.223 134.684 106.371C134.217 107.518 133.516 108.556 132.625 109.417C131.678 110.305 130.563 110.994 129.346 111.445C128.129 111.897 126.834 112.101 125.537 112.046H124.072C122.632 111.989 121.728 111.965 121.346 111.965C120.703 111.965 119.881 112.013 118.904 112.103V111.533L119.971 110.809ZM122.55 110.752C123.487 110.901 124.434 110.98 125.382 110.988C127.267 111.105 129.124 110.49 130.566 109.271C132.053 107.887 132.796 105.861 132.796 103.192C132.796 100.875 132.181 99.1063 130.949 97.8855C129.717 96.6648 127.905 96.0572 125.513 96.0626C124.521 96.0784 123.531 96.1627 122.55 96.3149C122.447 97.1763 122.398 98.0434 122.404 98.911V106.707C122.404 108.148 122.453 109.499 122.55 110.752Z" fill="white"/>
<path d="M146.517 103.94V108.547C146.517 109.596 146.517 110.37 146.517 110.85C147.673 110.939 148.959 110.988 150.253 110.988C151.003 110.996 151.754 110.955 152.499 110.866C152.921 110.807 153.336 110.704 153.736 110.557C153.939 109.857 154.143 108.978 154.346 107.936H155.16C154.992 109.094 154.884 110.259 154.835 111.427V111.965C153.923 112.038 153.02 112.079 152.141 112.079H150.269C148.202 112.022 146.688 111.997 145.712 111.997C144.735 111.997 143.547 111.997 142.009 112.079V111.265H142.375C142.822 111.309 143.273 111.239 143.685 111.061C143.916 110.795 144.043 110.454 144.043 110.101C144.1 109.605 144.133 108.473 144.133 106.789V100.278C144.133 99.2039 144.133 98.325 144.051 97.6414C144.043 97.2297 143.988 96.8203 143.889 96.4207C143.832 96.2979 143.741 96.1936 143.628 96.1196C143.299 95.9997 142.953 95.9338 142.603 95.9242L141.748 95.8022V95.0453H143.042L144.304 95.0941C145.012 95.0941 145.549 95.0941 145.931 95.0941L150.505 95.0209H152.678C153.41 95.0209 154.159 95.0209 154.916 95.1104C154.576 96.3067 154.409 97.5454 154.419 98.7889H153.606C153.616 98.0597 153.572 97.3307 153.475 96.6078C152.362 96.2314 151.191 96.0551 150.017 96.087C148.926 96.087 147.787 96.1358 146.599 96.2254C146.599 96.9741 146.599 97.7228 146.599 98.4634V100.294V102.736C147.413 102.793 148.08 102.817 148.682 102.817C149.771 102.89 150.865 102.824 151.937 102.622C152.19 102.492 152.312 102.085 152.312 101.401V100.587H153.126C153.069 101.784 153.036 102.744 153.036 103.46C153.036 104.176 153.036 105.088 153.126 106.13H152.312V105.438C152.312 104.673 152.165 104.209 151.864 104.038C150.834 103.79 149.771 103.705 148.715 103.786C147.925 103.818 147.233 103.843 146.517 103.94Z" fill="white"/>
<path d="M178.948 97.617L175.408 104.99C174.073 107.757 172.988 110.174 172.153 112.241H171.672C171.379 111.531 170.539 109.713 169.15 106.789L164.861 97.9506V107.196C164.861 109.344 164.942 110.565 165.113 110.85C165.284 111.134 165.821 111.289 166.741 111.289H167.18V112.038C166.073 111.981 165.178 111.956 164.486 111.956C163.982 111.956 162.981 111.956 161.483 112.038V111.265H162.257C162.622 111.303 162.99 111.223 163.306 111.037C163.513 110.816 163.629 110.526 163.632 110.223C163.738 109.108 163.787 107.912 163.787 106.618V99.8713C163.806 98.7851 163.771 97.6986 163.681 96.616C163.672 96.4924 163.635 96.3725 163.573 96.2653C163.511 96.1581 163.425 96.0665 163.323 95.9975C162.94 95.818 162.514 95.7503 162.094 95.8022H161.459V95.0453C162.842 95.1023 163.713 95.1348 164.071 95.1348C164.429 95.1348 165.17 95.1348 166 95.0453C166.966 97.1829 168.078 99.543 169.337 102.126L172.47 108.579L175.367 102.598C176.387 100.503 177.548 97.9859 178.85 95.0453C179.843 95.1023 180.543 95.1348 180.95 95.1348C181.357 95.1348 182.268 95.1348 183.489 95.0453V95.8022H182.675C181.975 95.8022 181.544 95.9242 181.389 96.1603C181.159 97.0134 181.079 97.9002 181.153 98.7807V107.497C181.072 108.615 181.157 109.74 181.406 110.833C181.568 111.118 182.024 111.265 182.773 111.265H183.457V112.013C182.35 111.956 181.3 111.932 180.291 111.932C179.282 111.932 178.012 111.932 176.791 112.013V111.265H177.605C178.232 111.265 178.614 111.126 178.745 110.85C178.944 109.684 179.009 108.499 178.94 107.318L178.948 97.617Z" fill="white"/>
<path d="M197.731 103.615C198.219 102.882 198.987 101.607 200.034 99.7899L202.785 95.0372H204.632V95.3383C203.325 96.8926 202.133 98.541 201.068 100.27C200.107 101.669 199.263 103.144 198.545 104.681C198.411 105.345 198.361 106.023 198.398 106.699C198.398 108.132 198.398 109.271 198.504 110.109C198.553 110.565 198.634 110.833 198.748 110.923C199.136 111.079 199.551 111.159 199.969 111.159L200.88 111.257V112.005C199.497 111.948 198.439 111.924 197.625 111.924L193.776 112.005V111.265H194.793C195.477 111.265 195.883 111.126 196.014 110.842C196.224 109.6 196.293 108.339 196.217 107.082C196.217 106.439 196.217 105.723 196.16 104.958C195.135 103.08 194.191 101.453 193.328 100.075C192.685 99.0086 191.95 98.0011 191.131 97.0636C190.903 96.7863 190.627 96.5521 190.317 96.3718C189.925 96.2344 189.51 96.1763 189.096 96.2009V95.4522L191.017 95.0697L191.961 94.8826C192.287 94.9898 192.586 95.1645 192.84 95.3953C193.534 96.1782 194.14 97.0351 194.646 97.9506C195.249 98.9761 196.277 100.864 197.731 103.615Z" fill="white"/>
<path fill-rule="evenodd" clip-rule="evenodd" d="M37.9459 154.299C39.9237 160.696 42.6039 166.853 45.9375 172.659L37.9459 154.299ZM107.698 150.735C107.65 150.705 107.611 150.663 107.584 150.613C107.161 150.417 106.77 150.043 106.266 149.864C105.501 149.579 104.199 149.775 103.165 149.685C100.52 149.473 98.1033 148.749 95.4991 149.099C95.0433 149.164 94.4167 149.237 94.14 149.701C94.3679 150.287 94.9538 149.954 95.3282 149.897C97.8673 149.506 100.83 150.377 103.727 150.491C105.045 150.54 105.997 150.141 107.259 151.256L107.796 151.744L108.341 151.174L107.698 150.735ZM123.161 170.332C122.574 168.607 121.801 166.95 120.858 165.392C119.648 163.175 118.288 161.043 116.789 159.011L116.146 158.32L115.625 158.954L116.146 159.435C117.838 161.062 118.245 162.804 119.401 164.48C117.578 166.523 120.215 169.038 121.256 170.918C119.531 170.82 117.887 169.876 116.3 168.289C114.713 166.702 114.241 164.741 112.931 163.406L112.321 162.967L111.458 164.008C109.944 164.008 108.097 162.576 106.494 161.16C104.891 159.744 103.336 158.076 103.238 156.619L103.344 156.505L102.685 156.025C101.725 155.626 100.781 156.025 99.7553 155.781C98.5916 155.536 97.3871 154.576 96.2152 154.063C95.6442 153.834 95.049 153.67 94.4411 153.575C93.9203 153.494 93.2122 153.307 92.7728 153.803C93.1064 154.535 94.0179 154.177 94.7178 154.34C96.0362 154.641 97.3464 155.545 98.7136 156.139C97.5092 156.619 96.3698 157.945 95.2305 159.296C92.7077 158.702 90.5755 157.018 88.2154 156.855C87.122 156.908 86.034 157.041 84.9601 157.254C84.0731 157.319 83.2104 157.254 82.3233 157.254C81.4363 157.254 80.5736 157.376 79.6947 157.376C80.9073 154.983 83.0639 153.648 84.8869 152.135C85.188 151.882 85.7007 151.687 85.603 151.191C85.1798 150.841 84.7892 151.378 84.5125 151.598C82.7306 152.737 81.1425 154.155 79.8086 155.797C78.3766 157.892 77.702 160.412 77.8962 162.942C77.945 163.756 78.0589 164.448 78.1078 165.115C77.3472 164.303 76.4856 163.592 75.5442 162.999C75.1048 162.665 74.649 162.055 74.1526 162.307C73.8352 162.942 74.8281 163.365 75.2594 163.691C77.0815 165.178 78.805 166.782 80.419 168.492C82.2257 170.234 84.3091 171.748 85.9286 173.489C85.3996 173.742 84.8055 172.977 84.3009 173.546C84.3009 174.311 85.2856 174.165 85.7577 174.287C87.6958 174.944 89.509 175.923 91.1207 177.184C93.611 178.942 95.7025 181.123 96.4431 183.491C95.3036 182.503 94.0155 181.701 92.6263 181.115C91.5113 180.635 90.2499 180.301 89.5745 180.773C88.899 181.245 88.8909 182.051 88.5735 182.523C86.8075 181.09 84.6102 180.789 82.714 179.731C80.8178 178.673 78.9786 177.29 76.8626 176.216C76.8626 175.727 77.4567 175.206 77.0905 174.742C76.415 174.466 76.5127 175.646 76.1627 175.817C75.9674 175.76 75.764 175.54 75.5768 175.524C75.4629 174.808 76.8789 173.79 76.472 173.082C75.6582 173.001 75.3652 174.539 74.8444 175.158C70.5393 172.529 66.0551 171.992 61.6605 171.137C57.8609 170.483 54.4 168.547 51.854 165.652C51.4471 165.172 51.0809 164.619 50.6821 164.106C50.2833 163.593 50.0229 162.958 49.3637 162.967C48.9243 163.487 49.8764 164.366 50.4054 165.026C51.7776 166.862 53.5079 168.401 55.4918 169.55C55.5487 169.624 55.4918 169.64 55.4429 169.607C52.5184 169.56 49.6431 170.363 47.1664 171.919C46.7432 172.163 46.3526 172.423 45.905 172.732C46.0271 172.96 46.1654 173.188 46.2956 173.408C46.7107 173.139 47.1094 172.871 47.5489 172.594C48.5108 171.987 49.5336 171.482 50.6007 171.088C51.6018 170.745 52.6398 170.521 53.6932 170.421C54.7487 170.223 55.8304 170.206 56.8915 170.372C57.3062 170.523 57.7112 170.7 58.1041 170.901C58.5181 171.043 58.9391 171.162 59.3655 171.259C63.5079 172.399 67.6583 172.659 71.817 174.433C75.1617 175.857 78.6449 178.201 82.0304 180.13C83.658 181.082 85.5135 181.53 87.133 182.466C88.6304 183.32 90.2418 184.305 92.2031 185.192C93.3831 185.729 96.2722 187.218 97.2081 186.193C97.3572 185.969 97.4594 185.717 97.5083 185.453C97.5573 185.189 97.5521 184.917 97.4929 184.655C97.3412 183.497 96.9384 182.386 96.3129 181.4C100.309 180.692 104.117 177.428 107.91 173.855C108.351 174.136 108.852 174.309 109.372 174.36C109.893 174.411 110.418 174.338 110.905 174.148C111.222 174.409 111.548 174.832 111.824 174.539C112.321 174.043 111.987 173.237 111.824 172.627C111.549 171.971 111.332 171.293 111.173 170.6C111.843 169.955 112.325 169.141 112.568 168.244C112.812 167.347 112.808 166.401 112.557 165.506C112.451 164.985 112.011 164.366 112.557 163.829C113.688 165.164 114.298 167.133 115.755 168.598C117.822 170.673 119.946 171.699 122.078 171.577C123.535 172.92 123.454 171.276 123.177 170.332H123.161ZM96.7035 185.591C96.2559 186.356 93.7168 185.045 93.1146 184.777C91.7474 184.183 90.6731 183.621 89.4524 182.962C88.956 179.87 93.0251 181.806 94.7829 183.092C95.5479 183.646 96.9883 185.037 96.7035 185.591ZM78.9704 159.793C79.0762 159.321 79.0599 158.661 79.3692 158.36C79.6784 158.059 81.3305 157.986 81.8106 157.97C82.714 157.97 83.5848 158.019 84.2521 157.97C82.6245 158.906 80.5248 160.354 78.7019 161.225C78.7144 160.736 78.8051 160.253 78.9704 159.793V159.793ZM87.5887 174.002C85.5949 172.049 83.129 170.079 81.2328 168.159C79.3366 166.238 78.3519 164.212 78.5635 162.063C80.3869 161.193 82.1537 160.209 83.8533 159.117C85.0437 158.293 86.4085 157.756 87.841 157.547C90.0872 157.457 92.2031 159.288 94.7341 159.866C94.7992 159.866 94.7341 159.939 94.7341 159.98C91.5358 164.415 87.9712 168.989 87.6945 173.261C87.6945 173.497 87.8248 173.823 87.5887 174.002V174.002ZM108.528 173.432C108.886 172.96 109.269 172.797 109.627 172.293C110.026 172.716 110.058 173.156 110.506 173.579C110.192 173.729 109.844 173.794 109.498 173.769C109.151 173.743 108.816 173.627 108.528 173.432V173.432ZM111.035 173.204C110.793 172.703 110.521 172.216 110.221 171.748L110.587 171.324C110.717 171.756 110.978 172.391 111.092 172.952C111.084 172.977 111.279 173.383 111.035 173.204V173.204ZM110.864 169.908C109.736 171.278 108.492 172.547 107.145 173.701C103.759 176.81 99.0961 180.765 95.7513 180.61C94.1237 178.169 90.9824 176.15 88.5979 174.604C87.6539 171.349 91.0963 166.279 93.9121 162.34C95.4502 160.183 97.1186 157.457 99.1857 156.643C100.235 156.228 101.489 156.57 102.441 156.643C103.141 159.898 108.366 164.358 111.474 164.708C111.877 165.543 112.033 166.476 111.925 167.397C111.817 168.318 111.449 169.189 110.864 169.908V169.908ZM119.816 167.093C119.499 166.376 119.287 165.807 119.743 165.139C121.022 166.958 121.995 168.973 122.624 171.105C121.419 169.968 120.451 168.604 119.775 167.093H119.816ZM129.273 163.463C128.158 160.012 125.374 156.716 123.144 153.469L121.623 151.76L121.273 152.192L121.761 152.712C123.087 154.674 124.617 156.627 125.879 158.596C124.683 160.582 126.644 162.356 127.726 164.187C127.856 164.423 127.368 164.383 127.344 164.383C125.863 164.448 123.812 163.333 122.111 161.721C120.581 160.265 119.808 158.637 118.042 157.408L117.383 156.993L116.959 157.498L117.57 157.945L117.863 158.157C118.729 158.872 119.503 159.692 120.166 160.598C122.42 163.251 125.863 165.864 128.426 164.733C128.744 165.074 129.061 165.245 129.346 165.115C129.769 164.651 129.427 163.968 129.264 163.463H129.273ZM126.139 159.581C126.142 159.524 126.156 159.467 126.182 159.415C126.207 159.364 126.242 159.318 126.286 159.28C127.321 160.726 128.143 162.313 128.727 163.992C127.45 162.779 126.229 161.07 126.131 159.581H126.139ZM128.19 136.721C126.237 135.305 123.918 134.898 121.802 134.418C119.686 133.938 117.562 133.181 115.625 132.717C113.688 132.253 111.556 131.708 109.472 131.35C107.468 130.914 105.419 130.721 103.369 130.772C100.512 130.984 97.5824 132.693 94.6283 134.076C91.838 135.506 88.9094 136.649 85.8879 137.486C82.8523 138.178 79.89 137.885 76.9766 138.446C74.4049 138.951 70.9787 140.603 68.2443 141.864C65.4147 143.232 62.5132 144.447 59.5527 145.502C58.0716 145.998 56.6555 146.601 55.1744 147.04C49.7381 148.668 44.3994 149.587 39.0526 152.737C38.624 152.992 38.1927 153.263 37.7587 153.551C37.8238 153.803 37.9052 154.055 37.9865 154.308C38.4341 154.006 38.8736 153.722 39.2724 153.494L39.5653 153.315C44.9528 150.108 50.5193 149.408 55.8417 147.618C59.514 146.428 63.1238 145.054 66.6573 143.5C70.23 141.872 73.9247 139.805 77.4567 139.154C79.3069 138.883 81.1707 138.715 83.0395 138.65C88.5897 138.267 93.7575 135.191 99.3159 132.749C101.022 131.93 102.892 131.509 104.785 131.521C110.197 131.659 116.227 133.734 121.696 135.11C121.981 135.549 121.859 135.98 122.176 136.371C122.996 137.098 123.974 137.625 125.033 137.909C126.066 138.275 127.1 138.397 127.726 138.674C126.396 139.627 124.805 140.149 123.169 140.172C120.19 140.416 116.805 139.276 113.737 138.471C112.22 138.023 110.628 137.888 109.057 138.072C108.357 138.161 107.535 138.316 106.73 138.454C104.646 138.829 101.847 139.358 99.9262 140.619C97.7289 142.068 95.556 144.46 93.3506 146.121C93.0088 146.381 92.5856 146.568 92.2194 146.82C91.8532 147.073 91.4056 147.292 91.5032 147.764C91.9427 148.123 92.5123 147.626 92.8786 147.39C95.8734 145.461 98.9008 141.514 102.034 140.359C104.18 141.192 106.427 141.739 108.715 141.986C110.343 142.23 112.239 142.475 113.981 144.371L114.485 144.916L115.039 144.338L114.567 143.809C113.354 143.085 112.508 142.182 111.45 141.726C110.126 141.337 108.759 141.113 107.381 141.059C105.999 140.836 104.638 140.498 103.312 140.049C105.586 139.372 107.927 138.943 110.294 138.772C112.038 138.811 113.764 139.133 115.405 139.724L115.674 139.797C117.762 140.351 119.899 140.705 122.054 140.855H122.217C123.865 140.948 125.511 140.655 127.026 140.001C127.621 139.596 128.168 139.123 128.654 138.593C128.931 138.34 129.126 138.332 129.183 138.113C129.24 137.893 128.866 137.217 128.182 136.721H128.19ZM125.749 137.339C124.816 137.128 123.921 136.774 123.096 136.29C122.925 136.195 122.776 136.066 122.658 135.91C122.541 135.755 122.457 135.576 122.412 135.386C124.571 135.678 126.62 136.518 128.361 137.828C127.466 137.841 126.578 137.664 125.757 137.307L125.749 137.339Z" fill="white"/>
<path fill-rule="evenodd" clip-rule="evenodd" d="M102.278 134.548C101.464 134.345 101.79 133.238 101.416 132.644C101.562 132.489 101.692 132.286 101.839 132.277L101.961 132.383C102.221 133.018 102.75 133.824 102.278 134.548Z" fill="white"/>
<path fill-rule="evenodd" clip-rule="evenodd" d="M100.919 134.312C100.862 134.263 100.805 134.312 100.756 134.377C100.244 134.125 100.235 133.523 100.211 133.067C100.911 132.57 101.212 133.873 100.919 134.312Z" fill="white"/>
<path fill-rule="evenodd" clip-rule="evenodd" d="M111.434 143.451C111.275 144.044 111.028 144.609 110.701 145.128C110.424 145.657 110.188 146.43 109.562 146.438C109.187 145.974 109.79 145.404 110.075 144.892C110.294 144.34 110.566 143.811 110.888 143.313C110.962 143.207 111.035 143.264 111.108 143.191L111.434 143.451Z" fill="white"/>
<path fill-rule="evenodd" clip-rule="evenodd" d="M110.237 143.248C110.113 143.772 109.829 144.244 109.423 144.599C109.358 144.534 109.301 144.525 109.244 144.558C108.707 144.2 109.659 142.646 110.237 143.248Z" fill="white"/>
<path fill-rule="evenodd" clip-rule="evenodd" d="M107.95 161.079C107.365 161.502 106.713 160.68 106.258 160.265C105.371 159.41 104.288 158.173 104.264 157.376C104.331 157.34 104.402 157.313 104.475 157.294L104.589 157.245C104.646 157.245 104.703 157.245 104.76 157.286C104.819 157.403 104.884 157.518 104.956 157.628V157.628C105.673 158.596 106.492 159.486 107.397 160.281C107.609 160.493 108.04 160.672 107.95 161.079Z" fill="white"/>
<path fill-rule="evenodd" clip-rule="evenodd" d="M110.009 162.454C109.635 162.967 108.52 162.145 108.61 161.64C109.008 161.315 110.066 161.974 110.009 162.454Z" fill="white"/>
<path fill-rule="evenodd" clip-rule="evenodd" d="M107.34 165.164C106.73 165.367 106.209 164.602 105.712 164.204C104.555 163.164 103.346 162.184 102.091 161.266C101.684 160.981 101.123 160.908 101.074 160.379C101.407 159.842 101.985 160.379 102.384 160.68C103.749 161.631 105.057 162.664 106.298 163.772C106.827 164.163 107.568 164.619 107.34 165.164Z" fill="white"/>
<path fill-rule="evenodd" clip-rule="evenodd" d="M109.318 166.987C108.984 167.516 108.268 166.637 108.203 166.336C108.496 165.685 109.472 166.645 109.318 166.987Z" fill="white"/>
<path fill-rule="evenodd" clip-rule="evenodd" d="M104.142 174.865C104.003 175.426 103.426 175.678 102.994 176.069C101.757 177.078 100.162 178.429 98.8113 178.828C96.9558 179.389 94.7422 178.421 92.8216 176.557C92.5856 176.338 92.0078 176.077 92.2519 175.638C92.8135 175.198 93.5784 176.329 94.1237 176.745C95.4909 177.786 97.143 178.559 98.5916 178.112C100.358 177.575 101.749 175.923 103.629 174.734C103.659 174.691 103.703 174.66 103.754 174.647C103.805 174.633 103.859 174.638 103.906 174.661L104.142 174.865Z" fill="white"/>
<path fill-rule="evenodd" clip-rule="evenodd" d="M91.2916 169.046C91.5765 169.379 91.2265 170.006 90.8115 170.201C90.1441 169.86 90.7789 168.728 91.2916 169.046Z" fill="white"/>
<path fill-rule="evenodd" clip-rule="evenodd" d="M91.4137 174.913C90.821 174.492 90.392 173.878 90.1992 173.177C90.0064 172.476 90.0617 171.729 90.3557 171.064C90.4697 171.007 90.5999 171.251 90.7057 171.154C90.7189 171.237 90.7624 171.312 90.8277 171.365C90.6573 172.162 90.797 172.995 91.2184 173.693C91.3811 174.026 91.9183 174.507 91.4137 174.913Z" fill="white"/>
<path fill-rule="evenodd" clip-rule="evenodd" d="M211.541 172.545C211.436 172.749 211.33 172.96 211.208 173.164L212.575 173.978L212.909 173.359C212.453 173.115 211.997 172.814 211.541 172.545ZM219.061 153.534C219.012 153.738 218.955 153.941 218.89 154.137C219.362 154.421 219.834 154.69 220.298 154.95C220.355 154.755 220.412 154.552 220.461 154.356C220.029 154.096 219.566 153.827 219.061 153.534ZM211.932 148.969C208.335 146.527 205.234 144.224 202.02 143.036C198.915 142.022 195.751 141.196 192.547 140.562C187.55 139.358 183.017 137.844 178.411 137.681C176.944 137.661 175.478 137.776 174.032 138.023C171.176 138.422 168.393 139.366 165.463 139.813C163.269 140.173 161.053 140.377 158.83 140.424C158.102 140.484 157.37 140.484 156.641 140.424C156.023 140.334 155.404 140.131 154.737 140.017C154.138 139.891 153.532 139.801 152.922 139.748C151.628 139.659 149.008 139.431 149.358 141.067C147.73 139.797 145.809 138.283 143.856 136.705C141.903 135.126 140.104 133.36 138.159 132.391C136.483 131.578 135.27 132.09 133.952 133.295C129.712 129.616 125 126.532 121.167 122.715C119.989 121.368 118.618 120.202 117.098 119.256C116.113 119.029 114.778 120.786 114.9 121.82C116.398 123.553 118.791 124.782 120.744 126.215C122.697 127.647 124.495 129.372 126.375 130.935C128.255 132.497 130.208 134.052 132.072 135.59C131.331 136.933 131.014 138.072 131.6 139.26C132.34 140.413 133.287 141.42 134.391 142.23C137.468 144.908 141.61 148.228 144.507 150.653C144.174 150.816 143.645 150.653 143.14 150.653C142.673 150.711 142.219 150.846 141.797 151.052C141.227 150.58 139.901 150.238 139.478 151.003C139.12 151.671 140.821 153.445 141.268 153.966C142.155 155.056 142.896 155.984 143.71 156.798C145.744 158.832 147.087 160.794 148.772 162.405C144.702 159.89 141.447 158.027 138.412 160.248C137.061 159.931 135.726 159.703 134.733 161.062C135.417 162.429 137.386 163.097 138.615 164.016C139.063 164.35 139.429 164.83 139.86 165.172C141.678 166.394 143.582 167.482 145.557 168.427C147.429 169.42 149.366 170.364 151.14 171.398C149.797 171.398 148.381 171.438 146.892 171.544C143.986 171.748 141.195 171.178 138.184 171.723C136.744 171.882 135.365 172.387 134.164 173.196C133.732 173.554 133.35 174.279 132.861 174.824C132.552 175.141 131.991 175.271 131.633 175.743C131.457 175.947 131.334 176.192 131.276 176.454C131.218 176.717 131.226 176.99 131.299 177.249C133.073 178.283 134.774 177.77 136.581 178.063C137.167 178.144 137.72 178.38 138.314 178.454C142.001 178.95 145.948 179.08 149.707 179.267C154.053 179.511 158.342 179.902 162.558 179.267C161.166 181.09 159.449 181.636 157.724 182.84C157.113 183.263 156.527 183.727 155.933 184.215C155.339 184.704 154.826 185.355 154.232 185.737C153.568 186.021 152.878 186.245 152.173 186.405C149.862 187.283 145.476 189.66 145.972 193.07C145.581 193.534 145.223 193.997 145.345 194.469C145.964 194.868 146.656 194.469 147.217 194.233C148.971 193.529 150.687 192.736 152.361 191.857C154.607 190.734 156.975 189.953 159.335 189.033C161.697 187.973 163.962 186.709 166.106 185.257C168.313 184.01 170.625 182.959 173.015 182.116C175.351 181.204 177.67 180.203 179.965 179.186C186.907 176.102 193.076 171.129 200.229 167.939C201.997 168.584 203.73 169.32 205.421 170.144L206.748 170.795C206.854 170.592 206.968 170.389 207.074 170.177L205.747 169.526C204.119 168.761 202.606 168.085 201.133 167.524C201.691 167.314 202.235 167.067 202.76 166.783C203.249 166.564 204.136 166.499 204.136 165.766C203.664 165.481 203.102 165.847 202.703 166.018C201.279 166.645 199.92 167.304 198.561 167.963C193.019 170.649 187.867 174.368 182.333 177.298C178.714 179.065 174.994 180.62 171.192 181.953C167.294 183.467 163.99 185.835 160.263 187.837C159.976 187.482 159.743 187.087 159.571 186.665C159.367 186.291 159.18 185.623 158.676 185.851C158.391 186.266 158.741 186.665 158.92 187.015C159.121 187.382 159.347 187.736 159.595 188.073C158.368 188.672 157.101 189.186 155.803 189.611C154.508 190.084 153.256 190.667 152.059 191.353C151.124 190.254 149.87 190.807 148.804 191.353C147.917 191.8 147.177 192.443 146.509 192.679C146.713 190.01 149.374 188.61 151.392 187.674C152.128 187.318 152.893 187.024 153.679 186.795C154.49 186.618 155.277 186.345 156.023 185.981C156.177 185.615 155.624 185.583 155.713 185.33C156.78 184.516 157.732 183.76 158.798 183.068C159.896 182.497 160.951 181.847 161.955 181.123C162.582 180.561 162.997 179.747 163.713 179.096C167.782 178.356 172.193 177.396 176.279 176.712C176.767 176.631 177.695 176.582 177.8 175.898C177.507 175.556 176.987 175.735 176.686 175.809C175.449 176.061 174.301 176.37 173.113 176.582C168.303 177.396 163.656 178.681 158.741 178.966C155.398 179.064 152.053 178.964 148.723 178.665C145.378 178.454 141.992 178.258 138.599 177.851C138.877 177.464 139.006 176.989 138.963 176.513C138.92 176.038 138.707 175.594 138.363 175.263C137.37 174.45 135.108 174.84 134.164 174.905C134.082 174.905 133.732 175.084 133.765 174.824C134.066 174.401 134.431 174.027 134.847 173.717C137.11 172.155 141.081 172.268 143.734 172.399C145.253 172.469 146.774 172.453 148.291 172.35C149.858 172.21 151.437 172.314 152.971 172.659C154.258 173.095 155.501 173.654 156.682 174.327C160.051 175.882 162.663 175.402 165.634 174.653C168.889 173.839 172.144 172.83 175.4 171.992C175.75 171.902 176.612 171.992 176.507 171.259C176.197 170.966 175.79 171.259 175.481 171.316C173.08 171.862 170.785 172.488 168.442 173.115C165.797 173.823 163.087 174.881 160.246 174.612C158.637 174.348 157.087 173.797 155.673 172.985C150.863 170.649 145.972 167.955 141.227 165.384C142.302 165.457 143.384 163.642 142.554 162.625C141.724 161.607 140.406 161.306 139.339 160.737C141.057 159.646 143.083 160.045 145.679 161.551C147.185 162.438 148.829 163.333 149.911 164.098C150.579 164.659 151.132 165.344 151.539 166.116C151.937 166.669 152.401 167.141 152.808 167.662C153.649 168.916 154.635 170.066 155.746 171.088C158.773 173.408 162.053 173.099 164.56 172.431C167.677 171.496 170.741 170.393 173.74 169.127C174.928 168.663 176.083 168.313 177.19 167.833C177.459 167.719 178.159 167.605 177.963 167.06C177.564 166.661 177.068 167.141 176.743 167.272C173.699 168.476 170.72 169.64 167.652 170.714C164.307 171.886 160.255 173.408 156.373 170.714C156.183 170.584 156.006 170.437 155.844 170.275C154.909 169.293 154.039 168.252 153.239 167.158C152.426 166.116 151.701 164.985 150.896 163.902C149.268 161.721 147.185 159.874 145.321 157.685C146.737 155.203 144.67 153.469 142.66 151.72C143.645 151.264 145.101 151.557 146.46 152.273C148.239 153.283 149.788 154.652 151.01 156.293C151.99 157.346 153.082 158.29 154.265 159.109C156.488 160.776 158.48 162.73 160.189 164.92C161.907 164.806 163.347 163.715 164.836 162.763C168.645 160.322 172.234 157.766 176.23 156.114C176.946 155.821 178.183 155.512 178.525 154.796C179.265 153.233 175.416 150.491 173.772 149.555C171.723 148.431 169.42 147.851 167.082 147.87C164.94 147.806 162.803 147.605 160.686 147.268C158.09 146.82 152.995 145.787 152.271 142.662C153.801 142.963 156.682 144.289 157.65 142.873C158.082 142.23 157.748 141.848 157.732 141.246C162.118 141.547 166.456 140.627 170.517 139.618C174.814 138.576 178.891 138.129 183.619 139.211C186.606 139.887 189.796 140.757 192.905 141.49C196.054 142.142 199.159 142.996 202.199 144.045C205.959 145.445 209.523 148.212 213.259 150.743C213.69 151.044 214.072 151.329 214.552 151.606C214.609 151.386 214.675 151.158 214.74 150.93L213.438 150.068C212.852 149.579 212.412 149.278 211.965 148.969H211.932ZM148.3 192.288C149.113 191.841 150.245 191.1 151.132 191.401C149.622 192.39 147.977 193.154 146.249 193.672C146.866 193.104 147.569 192.638 148.332 192.288H148.3ZM134.465 175.394C135.007 175.361 135.55 175.361 136.092 175.394C136.646 175.394 137.492 175.312 137.842 175.621C138.192 175.931 138.119 176.704 138.054 177.111C136.867 177.329 135.654 177.368 134.457 177.225C133.542 177.214 132.636 177.058 131.771 176.761C131.828 175.556 133.276 175.491 134.465 175.394V175.394ZM142.049 163.186C142.049 163.52 141.765 164.35 141.333 164.44C139.453 163.992 137.224 162.47 135.441 161.095C136.304 160.476 137.492 160.672 138.697 161.095C139.99 161.469 141.151 162.2 142.049 163.203V163.186ZM144.987 155.675C144.976 156.052 144.866 156.419 144.67 156.741C143.009 155.065 141.48 153.264 140.096 151.353C140.414 151.069 140.91 151.288 141.276 151.475C142.855 152.314 144.922 154.788 145.004 155.691L144.987 155.675ZM136.524 132.774C136.526 133.143 136.455 133.51 136.315 133.852C136.176 134.194 135.97 134.505 135.71 134.768C135.441 134.402 134.847 134.109 134.554 133.759C135.165 133.278 135.759 132.627 136.524 132.79V132.774ZM118.62 123.944C117.48 123.13 116.251 122.43 115.617 121.503C116.186 121.828 117.106 123.13 117.716 122.593C117.716 122.211 117.195 121.95 116.797 121.633C116.398 121.315 115.714 121.031 115.983 120.591C116.911 120.99 117.822 122.219 118.709 122.805C118.978 122.992 119.466 123.488 119.751 123.024C119.751 122.666 119.376 122.487 119.149 122.276C118.267 121.568 117.425 120.813 116.626 120.013C117.179 119.932 117.643 120.412 118.05 120.754C119.368 121.861 120.491 123.195 121.769 124.237C121.372 124.597 121.036 125.021 120.776 125.49C120.032 125.017 119.312 124.506 118.62 123.96V123.944ZM121.33 125.783C121.614 125.433 121.899 125.026 122.2 124.717C126.27 128.029 130.697 131.504 134.595 134.784C134.847 134.996 135.303 135.093 135.303 135.516C134.996 135.896 134.67 136.26 134.326 136.607C130.037 133.002 125.627 129.413 121.33 125.799V125.783ZM132.568 136.102C133.038 136.375 133.453 136.734 133.789 137.16C133.195 137.478 132.691 138.17 131.991 137.974C132 137.313 132.2 136.668 132.568 136.119V136.102ZM153.142 145.958C153.142 145.73 153.142 145.242 153.345 145.364C155.868 147.081 158.074 147.341 160.564 147.764C162.539 148.115 164.534 148.343 166.537 148.448C168.632 148.388 170.713 148.802 172.625 149.661C173.751 150.253 174.809 150.965 175.782 151.785C176.661 152.525 177.605 153.412 177.695 154.283C177.695 154.283 177.76 154.34 177.695 154.389C176.912 154.811 176.095 155.168 175.253 155.455C171.527 157.262 167.958 159.377 164.584 161.778C163.16 162.731 161.776 163.756 160.23 164.033C158.47 161.754 156.39 159.742 154.053 158.059C152.89 157.203 151.828 156.217 150.888 155.121C149.941 153.985 148.846 152.98 147.632 152.135C148.631 151.863 149.566 151.394 150.381 150.755C151.196 150.117 151.875 149.321 152.377 148.415C152.795 147.656 153.055 146.82 153.142 145.958V145.958ZM152.214 144.46C152.89 145.364 152.352 147.431 151.4 148.749C150.367 150.222 147.958 151.907 146.403 151.313C145.662 150.913 144.98 150.411 144.377 149.823C142.521 148.277 140.658 146.658 138.933 145.225C136.369 143.109 133.822 141.156 132.137 138.951C132.259 138.707 132.585 138.69 132.829 138.576C134.668 137.722 136.898 135.11 137.248 132.839C139.868 134.149 142.294 136.379 144.898 138.536C146.053 139.472 147.339 140.489 148.609 141.465C149.936 142.313 151.155 143.318 152.238 144.46H152.214ZM151.465 142.833C151.14 142.556 150.651 142.32 150.57 142.019C150.827 142.172 151.1 142.294 151.384 142.385C151.392 142.499 151.514 142.629 151.514 142.8L151.465 142.833ZM156.584 142.605C156.137 142.841 155.429 142.548 154.957 142.466C153.329 142.198 151.075 141.824 149.952 140.692C151.608 140.328 153.326 140.35 154.973 140.757C155.632 140.813 156.265 141.037 156.812 141.409C156.878 141.497 156.925 141.598 156.951 141.706C156.976 141.814 156.98 141.925 156.961 142.034C156.942 142.143 156.901 142.247 156.84 142.339C156.78 142.432 156.701 142.511 156.609 142.572L156.584 142.605Z" fill="white"/>
<path fill-rule="evenodd" clip-rule="evenodd" d="M210.353 151.191C210.312 150.735 209.694 150.32 209.198 149.905C208.701 149.49 208.172 148.855 207.692 149.018C207.358 149.482 208.148 149.832 208.612 150.247C209.075 150.662 209.694 151.427 210.239 151.386L210.353 151.191Z" fill="white"/>
<path fill-rule="evenodd" clip-rule="evenodd" d="M206.496 148.066C206.536 147.553 205.869 147.309 205.446 147.032C203.318 145.574 200.948 144.505 198.447 143.874C197.902 143.744 197.096 143.354 196.754 143.964C197.104 144.428 197.796 144.411 198.382 144.55C201.206 145.344 203.867 146.63 206.243 148.35C206.284 148.253 206.634 148.236 206.496 148.066Z" fill="white"/>
<path fill-rule="evenodd" clip-rule="evenodd" d="M182.358 169.388C181.65 168.997 180.795 169.388 180.128 169.485C179.461 169.583 178.5 169.607 178.159 170.299C178.541 170.852 179.151 170.299 179.566 170.21C180.414 170.051 181.27 169.94 182.13 169.876C182.187 169.786 182.236 169.689 182.317 169.729C182.35 169.607 182.325 169.502 182.358 169.388Z" fill="white"/>
<path fill-rule="evenodd" clip-rule="evenodd" d="M182.065 165.221C181.536 165.165 181.003 165.261 180.527 165.498C180.104 165.644 179.412 165.766 179.273 166.311C179.786 166.718 180.266 166.254 180.665 166.116C181.064 165.978 181.544 165.896 181.967 165.782C182.046 165.715 182.099 165.622 182.117 165.519C182.135 165.417 182.116 165.311 182.065 165.221V165.221Z" fill="white"/>
<path fill-rule="evenodd" clip-rule="evenodd" d="M160.417 185.615C159.604 185.794 160.312 187.576 160.759 187.194C161.207 186.811 160.702 185.867 160.417 185.615Z" fill="white"/>
<path fill-rule="evenodd" clip-rule="evenodd" d="M158.025 176.679C157.317 176.378 157.056 177.754 156.967 178.169C157.634 178.934 158.122 177.086 158.025 176.679Z" fill="white"/>
<path fill-rule="evenodd" clip-rule="evenodd" d="M156.723 175.369C156.08 175.263 156.08 176.183 155.958 176.688C155.836 177.192 155.518 177.957 155.811 178.315C155.909 178.397 155.966 178.315 156.047 178.372C156.405 178.144 156.487 177.347 156.633 176.744C156.78 176.142 157.064 175.654 156.723 175.369Z" fill="white"/>
<path fill-rule="evenodd" clip-rule="evenodd" d="M158.244 169.209C157.894 169.575 157.252 169.811 157.129 170.389C157.203 170.389 157.227 170.478 157.211 170.535C157.683 170.787 159.115 169.705 158.244 169.209Z" fill="white"/>
<path fill-rule="evenodd" clip-rule="evenodd" d="M157.61 167.532C157.186 167.719 157.113 168.346 156.796 168.753C156.478 169.16 155.982 169.485 155.909 169.982C156.438 170.527 157.536 169.054 157.797 168.313C157.943 167.963 158.025 167.638 157.61 167.532Z" fill="white"/>
<path fill-rule="evenodd" clip-rule="evenodd" d="M173.487 139.537C172.869 139.382 172.844 140.351 172.673 140.814C172.503 141.278 172.055 141.97 172.193 142.401C172.348 142.515 172.494 142.613 172.592 142.483C172.991 141.693 173.788 140.351 173.487 139.537Z" fill="white"/>
<path fill-rule="evenodd" clip-rule="evenodd" d="M171.306 140.391C170.753 140.985 170.387 142.174 170.883 142.735C171.388 142.678 171.298 141.921 171.388 141.531C171.477 141.14 171.917 140.562 171.306 140.391Z" fill="white"/>
<path fill-rule="evenodd" clip-rule="evenodd" d="M147.445 176.272C146.745 176.134 146.631 177.412 146.94 177.754C147.608 177.9 147.64 176.639 147.445 176.272Z" fill="white"/>
<path fill-rule="evenodd" clip-rule="evenodd" d="M145.907 175.174C145.467 175.426 145.354 177.184 145.752 177.518C145.874 177.623 145.939 177.591 146.045 177.615L146.127 177.493C146.253 177.096 146.275 176.673 146.192 176.264C146.192 175.955 146.428 175.385 145.907 175.174Z" fill="white"/>
<path fill-rule="evenodd" clip-rule="evenodd" d="M148.072 166.604C147.559 166.238 147.079 167.239 146.924 167.679C146.967 167.744 147.023 167.8 147.089 167.842C147.155 167.884 147.229 167.912 147.307 167.923C147.567 167.605 148.332 167.044 148.072 166.604Z" fill="white"/>
<path fill-rule="evenodd" clip-rule="evenodd" d="M147.535 164.659C147.16 164.456 146.932 165.082 146.721 165.473C146.346 166.022 146.122 166.658 146.07 167.32C146.184 167.434 146.265 167.386 146.371 167.418C146.477 167.451 146.468 167.418 146.509 167.337C146.765 166.922 146.985 166.486 147.168 166.035C147.445 165.563 147.982 164.977 147.535 164.659Z" fill="white"/>
<path fill-rule="evenodd" clip-rule="evenodd" d="M146.346 150.515C146.631 150.979 147.16 150.621 147.445 150.515C148.241 150.224 148.965 149.766 149.569 149.172C149.911 148.847 150.432 148.44 150.057 148.131C149.683 147.821 149.04 148.757 148.812 148.944C148.425 149.26 148.005 149.533 147.559 149.758C147.12 149.978 146.525 149.954 146.346 150.515Z" fill="white"/>
<path fill-rule="evenodd" clip-rule="evenodd" d="M151.514 145.885L151.384 145.803C150.774 145.705 150.367 147.097 150.228 147.585C150.928 148 151.563 146.316 151.514 145.885Z" fill="white"/>
<path fill-rule="evenodd" clip-rule="evenodd" d="M104.76 157.262C104.819 157.379 104.884 157.493 104.956 157.604L104.475 157.27L104.589 157.221C104.646 157.245 104.703 157.213 104.76 157.262Z" fill="white"/>
<path fill-rule="evenodd" clip-rule="evenodd" d="M114.168 152.183C112.492 150.955 110.709 150.556 110.188 151.248C109.668 151.939 110.612 153.526 112.288 154.755C113.965 155.984 115.747 156.383 116.268 155.691C116.789 154.999 115.845 153.412 114.168 152.183ZM115.511 155.138C115.226 155.52 113.981 155.081 112.719 154.161C111.458 153.241 110.669 152.183 110.945 151.801C111.222 151.418 112.475 151.85 113.737 152.778C114.998 153.705 115.788 154.755 115.511 155.138Z" fill="white"/>
<path fill-rule="evenodd" clip-rule="evenodd" d="M102.417 155.968C103.201 155.788 104.011 155.75 104.809 155.854C105.231 155.978 105.661 156.075 106.095 156.147C106.095 156.147 106.298 155.243 106.909 154.975C107.519 154.706 108.04 154.633 108.064 154.389C108.089 154.145 107.926 153.754 108.333 153.486C108.74 153.217 109.301 153.079 109.326 152.826C109.578 152.315 109.88 151.829 110.229 151.378L110.547 152.127C110.547 152.127 110.001 152.851 109.847 153.095C109.597 153.414 109.269 153.663 108.895 153.819C108.805 153.819 108.626 154.405 108.561 154.568C108.371 154.8 108.132 154.986 107.861 155.113C107.489 155.249 107.166 155.493 106.933 155.813C106.819 156.106 106.412 157.034 106.274 157.009L103.247 156.44L102.417 155.968Z" fill="white"/>
<path fill-rule="evenodd" clip-rule="evenodd" d="M116.251 155.447L116.162 155.789C115.931 156.124 115.658 156.428 115.348 156.692C115.228 156.757 115.123 156.847 115.042 156.957C114.96 157.067 114.904 157.193 114.876 157.327C114.678 157.742 114.341 158.076 113.924 158.271C113.607 158.385 113.175 158.637 113.159 158.865C113.143 159.093 112.817 159.451 112.679 159.451C112.54 159.451 112.296 159.768 112.296 159.898C112.296 160.029 111.751 160.419 111.775 160.712C111.8 161.005 112.337 162.967 112.337 162.967L111.71 164.171C111.71 164.171 111.303 163.902 111.507 163.74C111.71 163.577 111.8 163.398 111.71 162.812C111.621 162.226 111.189 161.819 111.189 161.567C111.189 161.314 110.937 160.688 111.238 160.37C111.486 160.017 111.683 159.631 111.824 159.223C111.914 159.036 112.475 158.092 112.768 158.002C113.268 157.775 113.728 157.467 114.127 157.091C114.38 156.822 115.552 155.65 115.552 155.65L116.251 155.447Z" fill="white"/>
<path fill-rule="evenodd" clip-rule="evenodd" d="M107.796 151.744L109.22 153.054L109.651 152.419L108.268 151.199L107.82 151.654L107.796 151.744Z" fill="white"/>
<path fill-rule="evenodd" clip-rule="evenodd" d="M115.674 158.954L114.396 157.685L114.957 157.075L116.707 158.841L115.674 158.954Z" fill="white"/>
<path fill-rule="evenodd" clip-rule="evenodd" d="M117.488 157.945L115.25 156.35L115.861 155.764L117.96 157.408L117.488 157.945Z" fill="white"/>
<path fill-rule="evenodd" clip-rule="evenodd" d="M114.738 144.281H114.957C114.957 144.281 121.265 151.085 121.696 151.923C122.127 152.761 121.232 152.167 121.232 152.167C121.232 152.167 116.585 146.812 116.064 146.34C115.543 145.868 114.258 144.713 114.258 144.713L114.738 144.281Z" fill="white"/>
<path fill-rule="evenodd" clip-rule="evenodd" d="M106.657 157.164C107.191 157.781 107.756 158.37 108.349 158.93C109.015 159.515 109.716 160.059 110.449 160.558C110.566 160.608 110.68 160.665 110.791 160.729C110.685 160.729 110.791 160.086 110.791 160.086C110.791 160.086 109.261 158.963 108.886 158.661C108.512 158.36 107.332 157.131 107.161 156.928C106.99 156.725 106.657 157.164 106.657 157.164Z" fill="white"/>
<path fill-rule="evenodd" clip-rule="evenodd" d="M107.47 155.813C107.47 155.813 108.382 156.839 109.196 157.571C109.861 158.156 110.563 158.7 111.295 159.199C111.412 159.249 111.527 159.306 111.637 159.369C111.531 159.369 111.637 158.727 111.637 158.727C111.637 158.727 110.107 157.604 109.733 157.302C109.358 157.001 108.178 155.772 108.007 155.569C107.837 155.366 107.47 155.813 107.47 155.813Z" fill="white"/>
<path fill-rule="evenodd" clip-rule="evenodd" d="M108.553 154.723C109.087 155.339 109.652 155.929 110.245 156.489C110.911 157.074 111.612 157.617 112.345 158.116C112.345 158.116 112.793 158.32 112.687 158.287C112.581 158.255 112.687 157.644 112.687 157.644C112.687 157.644 111.165 156.521 110.791 156.22C110.416 155.919 109.228 154.69 109.057 154.487C108.886 154.283 108.553 154.723 108.553 154.723Z" fill="white"/>
<path fill-rule="evenodd" clip-rule="evenodd" d="M109.537 153.811C109.537 153.811 110.449 154.861 111.23 155.577C111.897 156.161 112.598 156.704 113.33 157.205C113.447 157.255 113.561 157.312 113.672 157.376C113.574 157.376 113.672 156.733 113.672 156.733C113.672 156.733 112.142 155.618 111.767 155.309C111.393 154.999 110.18 153.746 110.009 153.583C109.839 153.42 109.537 153.811 109.537 153.811Z" fill="white"/>
<path d="M139.128 41.4961L141.325 38.9814C140.267 38.0048 135.856 34.4973 127.116 34.4077C118.083 34.3101 113.118 37.1259 112.085 37.7769L112.898 41.3903L99.7553 38.6233L125.171 25L152.328 39.372L139.128 41.4961ZM126.66 33.6672H127.1C137.468 33.773 141.797 38.485 141.976 38.6803L142.212 38.9488L140.935 40.4625L150.098 38.9895L125.171 25.8138L101.871 38.3141L112.077 40.4625L111.369 37.4189L111.572 37.2805C111.775 37.1259 116.642 33.6672 126.66 33.6672V33.6672Z" fill="white"/>
<path d="M126.758 47.0707L126.562 46.9324C124.571 45.591 122.371 44.59 120.052 43.9701C117.785 43.5505 115.456 43.5976 113.208 44.1084L112.931 44.1736L111.808 39.7789L112.394 39.5592L113.354 43.319C115.597 42.8351 117.914 42.8102 120.166 43.2458C122.483 43.8512 124.684 44.8386 126.676 46.1674C127.993 44.9031 129.631 44.0248 131.413 43.6283C133.345 43.2044 135.336 43.1218 137.297 43.3841L140.552 39.8847L140.959 40.4381L137.5 44.1573H137.362C135.422 43.8906 133.45 43.9649 131.535 44.377C129.789 44.7616 128.19 45.6402 126.929 46.908L126.758 47.0707Z" fill="white"/>
<path d="M110.262 36.0435L110.034 35.3599L120.215 30.2247L120.451 30.9083L110.262 36.0435Z" fill="white"/>
<path d="M107.275 37.7363L107.047 37.0608L108.357 36.4016L108.585 37.0852L107.275 37.7363Z" fill="white"/>
<path d="M144.247 55.4124L144.06 55.3147C144.019 55.3147 143.042 54.7532 142.228 54.2079C141.634 53.7712 141.136 53.2173 140.764 52.5803L140.658 52.385L140.755 52.1897C141.164 51.5575 141.686 51.0058 142.294 50.562C142.815 50.143 143.45 49.8906 144.117 49.8377C144.345 49.8383 144.571 49.7908 144.78 49.6983C144.989 49.6057 145.176 49.4702 145.329 49.3006C145.467 49.1216 145.638 48.8774 145.85 48.56C146.9 46.9324 146.55 41.5042 146.33 39.5429L146.932 39.4453C146.932 39.7464 147.746 46.8429 146.33 49.0158C146.281 49.0971 146.224 49.1704 146.184 49.2436C146.242 50.2121 146.19 51.1841 146.029 52.1408C145.746 53.3055 145.187 54.3854 144.401 55.2903L144.247 55.4124ZM141.407 52.3606C141.711 52.8322 142.104 53.241 142.562 53.565C143.14 53.9556 143.832 54.3788 144.19 54.5335C144.815 53.7809 145.26 52.8959 145.492 51.9455C145.607 51.2927 145.664 50.6309 145.663 49.9679C145.268 50.2982 144.777 50.4923 144.263 50.5213C143.697 50.5664 143.157 50.7757 142.709 51.1236C142.229 51.4846 141.792 51.8997 141.407 52.3606V52.3606Z" fill="white"/>
<path fill-rule="evenodd" clip-rule="evenodd" d="M126.001 252.002C195.589 252.002 252.002 195.589 252.002 126.001C252.002 56.4125 195.589 0 126.001 0C56.4125 0 0 56.4125 0 126.001C0 195.589 56.4125 252.002 126.001 252.002ZM126.443 229.896C184.067 229.896 230.78 183.183 230.78 125.559C230.78 67.9347 184.067 21.2212 126.443 21.2212C68.8189 21.2212 22.1054 67.9347 22.1054 125.559C22.1054 183.183 68.8189 229.896 126.443 229.896Z" fill="url(#paint0_linear_108_3)" fill-opacity="0.5"/>
<defs>
<linearGradient id="paint0_linear_108_3" x1="-142.885" y1="-3.09271" x2="46.3913" y2="358.759" gradientUnits="userSpaceOnUse">
<stop offset="0.298261" stop-color="#682F58"/>
<stop offset="0.607271" stop-color="#D4B06B"/>
<stop offset="0.926051" stop-color="#6B6B6B" stop-opacity="0.99"/>
</linearGradient>
</defs>
</svg>
