<svg width="147" height="135" viewBox="0 0 147 135" fill="none" xmlns="http://www.w3.org/2000/svg">
<path d="M114.667 134.241C114.554 134.24 114.446 134.198 114.361 134.124C114.277 134.049 114.222 133.947 114.206 133.835C112.925 123.521 111.441 111.834 109.321 103.235C107.81 97.161 107.1 93.0964 107.1 90.3866C107.1 87.9165 111.109 86.1652 111.561 85.9809C112.4 85.4786 113.095 84.7686 113.579 83.9194C114.063 83.0702 114.321 82.1104 114.326 81.1328V30.0434C114.271 16.476 115.423 0.899414 124.253 0.899414C133.608 0.899414 147 18.0613 147 30.0434C147 42.2005 139.626 52.0902 130.649 52.0902C121.921 52.3668 121.875 53.141 121.119 66.1368C120.815 71.1969 120.409 78.1189 119.275 87.4925C118.354 95.8338 115.109 133.439 115.082 133.817C115.073 133.931 115.021 134.038 114.938 134.116C114.854 134.194 114.745 134.239 114.63 134.241H114.667ZM124.253 1.82111C116.234 1.82111 115.211 16.9092 115.211 30.0434V81.1328C115.207 82.2767 114.908 83.4001 114.341 84.3936C113.774 85.387 112.959 86.2165 111.976 86.8012C110.833 87.2805 108.012 88.8105 108.022 90.3866C108.022 92.995 108.722 97.0136 110.215 103.005C112.059 110.47 113.423 120.213 114.584 129.383C115.506 119.162 117.635 94.0273 118.409 87.3911C119.497 78.0451 119.902 71.1324 120.197 66.0816C120.953 53.1318 121.054 51.4727 130.631 51.1686C139.156 51.1686 146.078 41.6936 146.078 30.0434C146.078 17.8586 132.345 1.82111 124.253 1.82111ZM130.105 49.0855C121.451 49.0855 117.57 39.2879 117.57 29.5825V28.4949C117.57 20.6605 117.57 8.81676 121.349 5.01017C121.723 4.61488 122.173 4.29985 122.672 4.08433C123.171 3.8688 123.709 3.75731 124.253 3.75666C130.962 3.75666 144.53 18.218 144.53 30.0434C144.567 39.5091 139.599 49.0855 130.105 49.0855ZM124.253 4.67836C123.831 4.6779 123.413 4.76442 123.026 4.93252C122.639 5.10062 122.291 5.34668 122.004 5.65535C118.474 9.19465 118.483 21.3241 118.492 28.4949V29.5825C118.492 38.7994 122.087 48.1638 130.105 48.1638C139 48.1638 143.645 39.0483 143.645 30.0434C143.645 18.8632 130.502 4.67836 124.253 4.67836Z" fill="white"/>
<path d="M113.819 96.3407C113.11 96.3407 112.417 96.1304 111.827 95.7365C111.237 95.3425 110.778 94.7825 110.507 94.1274C110.235 93.4722 110.164 92.7513 110.303 92.0558C110.441 91.3603 110.782 90.7215 111.284 90.2201C111.785 89.7186 112.424 89.3772 113.12 89.2388C113.815 89.1005 114.536 89.1715 115.191 89.4428C115.846 89.7142 116.406 90.1738 116.8 90.7634C117.194 91.353 117.404 92.0462 117.404 92.7553C117.404 93.2261 117.312 93.6924 117.131 94.1274C116.951 94.5624 116.687 94.9576 116.354 95.2906C116.021 95.6235 115.626 95.8876 115.191 96.0678C114.756 96.248 114.29 96.3407 113.819 96.3407V96.3407ZM113.819 90.0916C113.292 90.0916 112.777 90.2478 112.339 90.5405C111.901 90.8332 111.56 91.2492 111.358 91.736C111.156 92.2227 111.104 92.7583 111.207 93.275C111.309 93.7917 111.563 94.2663 111.936 94.6388C112.308 95.0114 112.783 95.265 113.299 95.3678C113.816 95.4706 114.352 95.4179 114.838 95.2162C115.325 95.0146 115.741 94.6732 116.034 94.2352C116.327 93.7971 116.483 93.2821 116.483 92.7553C116.483 92.0489 116.202 91.3713 115.703 90.8718C115.203 90.3723 114.525 90.0916 113.819 90.0916V90.0916Z" fill="white"/>
<path d="M108.575 88.9117C108.526 88.9214 108.476 88.9214 108.427 88.9117C108.347 88.886 108.275 88.839 108.22 88.7756C108.165 88.7123 108.128 88.635 108.114 88.5522L107.874 87.0683C106.38 78.3995 105.591 69.6239 105.514 60.8277C105.367 52.3758 105.358 51.8688 97.9566 51.6107C88.9517 51.6107 81.615 41.721 81.615 29.5639C81.615 17.5818 95.0164 0.419922 104.372 0.419922C113.201 0.419922 114.335 15.9965 114.335 29.5639V81.3538C114.29 82.1958 114.342 83.0402 114.492 83.87C114.532 83.9737 114.532 84.0889 114.492 84.1926C113.925 85.2738 113.07 86.1767 112.022 86.801C110.899 87.286 109.86 87.9455 108.943 88.755C108.897 88.8072 108.841 88.8484 108.777 88.8755C108.713 88.9026 108.644 88.915 108.575 88.9117V88.9117ZM104.372 1.35083C96.2699 1.35083 82.5367 17.3975 82.5367 29.5731C82.5367 41.2233 89.4586 50.6983 97.975 50.6983C106.27 50.9563 106.27 52.2744 106.436 60.7908C106.509 69.5441 107.295 78.2769 108.787 86.9024L108.888 87.5384C109.715 86.9161 110.612 86.3933 111.561 85.9807C112.394 85.4746 113.08 84.7598 113.552 83.9069C113.412 83.0604 113.363 82.2015 113.404 81.3446V29.5731C113.413 16.4389 112.427 1.35083 104.372 1.35083ZM98.5096 48.6152C89.0162 48.6152 84.0483 39.0389 84.0483 29.5731C84.0483 17.7478 97.6801 3.28639 104.372 3.28639C104.915 3.28704 105.453 3.39853 105.952 3.61405C106.452 3.82957 106.902 4.1446 107.275 4.53989C111.072 8.34648 111.063 20.2087 111.045 28.0246V29.1122C111.045 38.8177 107.174 48.6152 98.5096 48.6152ZM104.372 4.20808C98.1225 4.20808 84.97 18.4206 84.97 29.5731C84.97 38.578 89.6245 47.6936 98.5096 47.6936C106.538 47.6936 110.123 38.3568 110.123 29.1122V28.0246C110.123 20.8078 110.123 8.72438 106.621 5.19429C106.334 4.88351 105.986 4.63543 105.599 4.4657C105.212 4.29596 104.794 4.20824 104.372 4.20808V4.20808Z" fill="white"/>
<path d="M15.8062 127.328H15.0781C10.6908 127.07 6.7091 124.563 3.86107 120.157C1.04791 115.391 -0.279365 109.894 0.0490145 104.369C0.377394 98.8435 2.3465 93.5421 5.70445 89.1424C9.03177 85.133 13.2808 83.0592 17.6865 83.3265C25.6222 83.5293 25.696 82.9302 26.9034 72.81C27.8314 64.6714 29.2131 56.5909 31.0418 48.6063C38.3969 16.0982 46.0654 1.58153 46.1576 1.44328C46.206 1.35939 46.2784 1.29182 46.3654 1.24915C46.4523 1.20648 46.55 1.19064 46.6461 1.20364C46.7418 1.22009 46.8299 1.26639 46.8978 1.33591C46.9656 1.40543 47.0098 1.49463 47.0239 1.59075C49.6969 20.4025 44.5999 43.8872 44.5446 44.1269C44.5228 44.2207 44.471 44.3048 44.3971 44.3665L35.8622 51.9613L32.6916 106.258C32.4647 111.802 30.4903 117.131 27.0509 121.485C23.9448 125.273 19.9354 127.328 15.8062 127.328ZM0.496889 104.378H0.948518C0.545078 109.715 1.8352 115.043 4.63529 119.604C7.31742 123.724 11.0871 126.121 15.1334 126.36C19.1796 126.6 23.1982 124.655 26.3412 120.876C29.6634 116.658 31.5639 111.495 31.7699 106.129L34.9498 51.6479C34.9573 51.5239 35.0137 51.4079 35.1065 51.3253L43.6782 43.749C44.0837 41.8042 48.3973 20.7896 46.305 3.1945C44.2865 7.46193 38.0098 21.9786 31.9174 48.763C30.098 56.714 28.7256 64.7607 27.8067 72.8653C26.5808 82.9209 26.3872 84.451 17.6035 84.2205C13.502 83.9717 9.52026 85.9349 6.38651 89.7507C3.06905 93.9515 1.16557 99.0941 0.948518 104.442L0.496889 104.378ZM15.9352 121.743H15.4007C8.66309 121.346 3.61221 113.659 4.14679 104.599C4.68137 95.5389 10.5986 88.4972 17.3178 88.9304C20.6174 89.1239 23.5945 91.0318 25.7236 94.2946C27.8783 97.807 28.8686 101.91 28.5532 106.019C28.0647 114.83 22.4516 121.743 15.9352 121.743ZM16.7832 89.8336C10.7553 89.8336 5.5109 96.2855 5.05927 104.645C4.58921 113.199 9.19767 120.443 15.456 120.812C21.7143 121.18 27.1615 114.517 27.6315 105.963C27.9371 102.035 26.9883 98.1105 24.9218 94.7555C23.0231 91.7323 20.258 89.9811 17.2717 89.8336H16.7832Z" fill="white"/>
<path d="M38.5168 43.1591C37.8747 43.1609 37.2465 42.9722 36.7118 42.6168C36.177 42.2614 35.7598 41.7554 35.5128 41.1627C35.2658 40.5701 35.2003 39.9174 35.3244 39.2875C35.4485 38.6575 35.7568 38.0786 36.2102 37.6239C36.6635 37.1693 37.2416 36.8594 37.8712 36.7334C38.5008 36.6075 39.1536 36.6712 39.747 36.9165C40.3403 37.1618 40.8476 37.5776 41.2045 38.1113C41.5614 38.6451 41.7519 39.2727 41.7519 39.9148C41.7495 40.7729 41.4082 41.5953 40.8022 42.2029C40.1963 42.8106 39.3749 43.1543 38.5168 43.1591V43.1591ZM38.5168 37.629C38.057 37.6271 37.607 37.7618 37.2239 38.0159C36.8407 38.27 36.5415 38.6321 36.3643 39.0564C36.1871 39.4806 36.1398 39.9479 36.2284 40.3991C36.317 40.8502 36.5375 41.265 36.8619 41.5907C37.1864 41.9165 37.6002 42.1386 38.051 42.229C38.5018 42.3193 38.9693 42.2739 39.3942 42.0984C39.8192 41.9228 40.1825 41.6251 40.4381 41.243C40.6938 40.8608 40.8302 40.4114 40.8302 39.9516C40.8351 39.6443 40.7789 39.3391 40.665 39.0536C40.551 38.7681 40.3815 38.5081 40.1663 38.2886C39.9511 38.0692 39.6945 37.8946 39.4114 37.775C39.1282 37.6554 38.8241 37.5933 38.5168 37.5921V37.629Z" fill="white"/>
<path d="M35.1895 34.2373C35.1057 34.2366 35.0236 34.2131 34.9521 34.1693C34.8807 34.1254 34.8225 34.0629 34.7839 33.9885C31.3921 27.6841 31.0972 14.384 31.2539 7.01971C31.2542 6.91459 31.2912 6.81288 31.3585 6.73212C31.4258 6.65136 31.5192 6.59661 31.6225 6.5773C31.7251 6.55513 31.8322 6.56862 31.926 6.61555C32.0199 6.66247 32.0949 6.74002 32.1387 6.83537C33.595 10.1074 35.8992 15.6744 38.5905 23.601C38.6229 23.6935 38.6229 23.7942 38.5905 23.8867C37.6043 27.0389 36.6181 30.4031 35.6688 33.8963C35.6413 33.9837 35.5894 34.0614 35.5192 34.1202C35.4489 34.179 35.3633 34.2164 35.2724 34.2281L35.1895 34.2373ZM32.1479 9.17647C32.1479 16.1998 32.5442 26.6149 35.0697 32.4677C35.9084 29.4445 36.7748 26.5135 37.632 23.7577C35.4844 17.3427 33.5673 12.4946 32.1479 9.17647Z" fill="white"/>
<path d="M32.5442 44.5508C32.4417 44.5513 32.342 44.5169 32.2616 44.4533C32.1812 44.3896 32.1248 44.3005 32.1018 44.2006C31.9175 43.4448 27.733 25.6469 28.2491 8.76147C28.3229 6.20838 28.498 3.92258 28.7653 1.78426C28.7797 1.68874 28.8225 1.59979 28.8883 1.52906C28.9541 1.45834 29.0397 1.40914 29.134 1.38793C29.2294 1.36857 29.3284 1.38055 29.4165 1.42207C29.5045 1.46359 29.5767 1.53244 29.6225 1.61835C29.6225 1.69209 30.5902 3.35113 32.1387 6.83513C33.595 10.1071 35.8992 15.6742 38.5905 23.6007C38.6229 23.6932 38.6229 23.794 38.5905 23.8865C36.6273 30.1448 34.7563 36.9745 33.0604 44.1637C33.0421 44.2829 32.9779 44.3903 32.8814 44.4626C32.7849 44.535 32.6638 44.5667 32.5442 44.5508ZM29.475 3.39722C29.3367 5.03783 29.2261 6.88122 29.1708 8.78912C28.7561 22.5592 31.4843 36.9376 32.5719 42.0622C34.1664 35.6104 35.8623 29.435 37.632 23.7574C35.0052 15.9415 32.7378 10.4482 31.3184 7.21303C30.5442 5.51711 29.9358 4.25439 29.475 3.39722Z" fill="white"/>
<path d="M62.3147 126.858C53.7245 126.858 46.1667 117.816 45.245 106.138L40.9591 51.9151L38.0834 49.4541C38.0327 49.4127 37.9916 49.3608 37.9629 49.3019C37.9343 49.243 37.9188 49.1786 37.9175 49.1131C37.9169 49.0469 37.9306 48.9813 37.9577 48.9209C37.9847 48.8605 38.0244 48.8066 38.0742 48.7629L43.7426 43.7489C43.7827 43.693 43.8352 43.6473 43.896 43.6153C43.9567 43.5833 44.0242 43.5659 44.0928 43.5645C44.1936 43.5577 44.2938 43.5848 44.3774 43.6416C44.4609 43.6985 44.523 43.7816 44.5537 43.8779C44.9408 45.371 45.3371 46.8918 45.7335 48.4864C47.7121 56.4326 49.2506 64.482 50.3419 72.5978C51.7798 82.6812 51.8535 83.2895 59.7985 82.9116C68.7666 82.1835 76.8775 91.4833 77.836 103.594C78.7577 115.705 72.3059 126.148 63.2641 126.858C62.9599 126.849 62.6557 126.858 62.3147 126.858ZM39.0788 49.1039L41.7057 51.3436C41.7522 51.382 41.7901 51.4298 41.8171 51.4837C41.8441 51.5377 41.8595 51.5967 41.8623 51.657L46.1667 106.037C47.0883 117.641 54.72 126.545 63.2088 125.881C71.6975 125.217 77.8545 115.235 76.942 103.659C76.0203 92.0271 68.3702 83.1236 59.8907 83.7964C51.1069 84.2112 50.8857 82.6812 49.4663 72.7361C48.3779 64.6502 46.8393 56.6313 44.8578 48.7168C44.526 47.408 44.2034 46.136 43.8809 44.8918L39.0788 49.1039ZM62.1212 121.282C55.6693 121.282 50.047 114.535 49.3557 105.816C48.9574 101.698 49.8703 97.5588 51.9641 93.9903C54.0287 90.6722 56.9689 88.709 60.2593 88.4602C67.0061 87.9072 73.0524 94.8475 73.7621 103.889C74.1654 108.009 73.2487 112.15 71.1445 115.715C69.0892 119.033 66.1397 120.996 62.8493 121.245C62.6004 121.272 62.3608 121.282 62.1119 121.282H62.1212ZM60.969 89.3358C60.7478 89.3358 60.5266 89.3358 60.3054 89.3358C57.3191 89.5754 54.637 91.3912 52.7291 94.442C50.7369 97.8446 49.8722 101.79 50.259 105.714C50.9318 114.249 56.5633 120.793 62.7571 120.305C65.7526 120.065 68.444 118.249 70.3427 115.189C72.3412 111.792 73.2124 107.849 72.8312 103.926C72.186 95.7231 66.9324 89.3358 60.9783 89.3358H60.969Z" fill="white"/>
</svg>
