<svg width="186" height="168" viewBox="0 0 186 168" fill="none" xmlns="http://www.w3.org/2000/svg">
<g opacity="0.6">
<path fill-rule="evenodd" clip-rule="evenodd" d="M106.861 50.0185C101.679 45.557 95.8078 41.9088 89.4349 39.2656L125.369 76.0941C122.79 69.5626 119.23 63.5453 114.877 58.2341L106.861 50.0185ZM80.1547 36.2292C82.5475 36.8124 84.889 37.5311 87.1711 38.377L126.236 78.4142C127.061 80.7531 127.763 83.153 128.332 85.6053L80.1547 36.2292ZM78.3575 35.8187C75.9082 35.2968 73.4084 34.916 70.8666 34.685L129.838 95.1245C129.613 92.5195 129.241 89.9574 128.732 87.4472L78.3575 35.8187ZM123.406 130.568C123.82 129.71 124.216 128.841 124.594 127.962L38.8262 40.0601C37.9689 40.4476 37.1212 40.8536 36.2837 41.2774L123.406 130.568ZM35.3549 41.757C34.1198 42.4076 32.9076 43.0975 31.72 43.8251L120.92 135.246C121.63 134.028 122.303 132.786 122.938 131.52L35.3549 41.757ZM120.392 136.135L30.8516 44.3666C29.5637 45.184 28.3056 46.0461 27.0796 46.9509L117.87 140.001C118.753 138.745 119.594 137.456 120.392 136.135ZM117.28 140.828C116.57 141.807 115.834 142.766 115.073 143.703L23.4682 49.8178C24.3823 49.0382 25.3176 48.2839 26.273 47.5557L117.28 140.828ZM111.736 147.508C112.665 146.527 113.564 145.517 114.433 144.479L22.7111 50.4734C21.6984 51.3639 20.7128 52.2859 19.7556 53.2377L111.736 147.508ZM111.043 148.229C109.993 149.305 108.908 150.344 107.789 151.344L16.0122 57.283C16.9885 56.1361 18.0024 55.0238 19.052 53.9481L111.043 148.229ZM103.888 154.571C104.964 153.749 106.014 152.893 107.038 152.006L15.3668 58.053C14.501 59.1018 13.6662 60.1784 12.8639 61.2813L103.888 154.571ZM103.082 155.177C101.983 155.99 100.858 156.769 99.7085 157.512L9.99392 65.5648C10.7191 64.3868 11.4792 63.2337 12.2729 62.107L103.082 155.177ZM94.816 160.38C96.1886 159.655 97.5328 158.881 98.8464 158.06L9.45934 66.4484C8.65894 67.7946 7.90379 69.1723 7.19606 70.579L94.816 160.38ZM93.8883 160.861C92.7618 161.433 91.6168 161.972 90.4546 162.478L5.1489 75.049C5.64251 73.8578 6.16896 72.6844 6.72709 71.5299L93.8883 160.861ZM85.3296 164.45C86.7305 163.98 88.1104 163.462 89.4675 162.898L4.73927 76.0607C4.18921 77.4516 3.68363 78.8658 3.22433 80.3015L85.3296 164.45ZM84.2702 164.796C82.6392 165.312 80.9809 165.765 79.2979 166.15L1.56577 86.4834C1.94192 84.7585 2.38327 83.0589 2.88705 81.3874L84.2702 164.796ZM74.9828 166.982C76.0463 166.815 77.1014 166.622 78.1474 166.403L1.31959 87.6625C1.10572 88.7345 0.916958 89.8159 0.753953 90.9059L74.9828 166.982ZM73.7614 167.162C72.0583 167.396 70.3344 167.562 68.5923 167.658L0.0949437 97.4555C0.188502 95.67 0.35061 93.9032 0.578617 92.1577L73.7614 167.162ZM65.0475 167.755C65.7859 167.755 66.5214 167.742 67.2538 167.717L0.0367124 98.8273C0.0123021 99.5779 0 100.332 0 101.088C0 102.529 0.0445574 103.958 0.132336 105.376L60.8645 167.619C62.2475 167.709 63.6423 167.755 65.0475 167.755ZM59.3544 167.503C57.404 167.33 55.4782 167.068 53.5808 166.723L1.00746 112.841C0.670009 110.896 0.414817 108.922 0.245699 106.923L59.3544 167.503ZM1.33915 114.612L51.8524 166.383C49.8607 165.962 47.9022 165.448 45.9816 164.846L2.83887 120.629C2.25094 118.66 1.74952 116.653 1.33915 114.612ZM32.2949 158.7C35.9553 160.89 39.8432 162.725 43.9135 164.157L3.51024 122.749C4.90781 126.92 6.69786 130.905 8.83519 134.656L32.2949 158.7ZM28.5095 156.252L11.2238 138.536C15.8441 145.498 21.7167 151.517 28.5095 156.252ZM126.74 122.28C126.221 123.868 125.645 125.43 125.015 126.962L39.8021 39.6288C41.2972 38.983 42.8208 38.3927 44.3705 37.8606L126.74 122.28ZM127.083 121.2C127.542 119.71 127.952 118.198 128.31 116.665L49.8497 36.2513C48.3538 36.6183 46.8779 37.0382 45.4242 37.5091L127.083 121.2ZM129.356 111.169C129.14 112.629 128.878 114.073 128.571 115.501L50.9854 35.9838C52.378 35.6693 53.7874 35.4005 55.212 35.179L129.356 111.169ZM129.53 109.915C129.782 107.963 129.951 105.984 130.035 103.983L62.2238 34.4836C60.2707 34.5691 58.3399 34.7428 56.4351 35.0011L129.53 109.915ZM130.095 101.088C130.095 101.592 130.09 102.095 130.079 102.596L63.5766 34.4386C64.0656 34.4275 64.5559 34.4219 65.0475 34.4219C66.4943 34.4219 67.9301 34.4703 69.3534 34.5656L129.955 96.6754C130.048 98.1341 130.095 99.6056 130.095 101.088Z" fill="url(#paint0_linear_128_215)" fill-opacity="0.4"/>
<path fill-rule="evenodd" clip-rule="evenodd" d="M120.952 133.441C156.877 133.441 186 103.594 186 66.7748C186 29.9559 156.877 0.108215 120.952 0.108215C85.0277 0.108215 55.9049 29.9559 55.9049 66.7748C55.9049 103.594 85.0277 133.441 120.952 133.441ZM120.952 113.441C146.1 113.441 166.486 92.548 166.486 66.7747C166.486 41.0015 146.1 20.1081 120.952 20.1081C95.8052 20.1081 75.4192 41.0015 75.4192 66.7747C75.4192 92.548 95.8052 113.441 120.952 113.441Z" fill="url(#paint1_linear_128_215)" fill-opacity="0.4"/>
</g>
<defs>
<linearGradient id="paint0_linear_128_215" x1="-78.9883" y1="6.48974" x2="35.5067" y2="213.024" gradientUnits="userSpaceOnUse">
<stop offset="0.232292" stop-color="#A02E81"/>
<stop offset="0.607271" stop-color="#D5B06B"/>
<stop offset="0.926051" stop-color="#3F3F42" stop-opacity="0.99"/>
</linearGradient>
<linearGradient id="paint1_linear_128_215" x1="-12.395" y1="-1.40693" x2="81.6222" y2="173.967" gradientUnits="userSpaceOnUse">
<stop offset="0.232292" stop-color="#A02E81"/>
<stop offset="0.607271" stop-color="#D5B06B"/>
<stop offset="0.926051" stop-color="#3F3F42" stop-opacity="0.99"/>
</linearGradient>
</defs>
</svg>
